<?xml version="1.0" encoding="utf-8" standalone="no"?>
<!DOCTYPE svg PUBLIC "-//W3C//DTD SVG 1.1//EN"
  "http://www.w3.org/Graphics/SVG/1.1/DTD/svg11.dtd">
<svg xmlns:xlink="http://www.w3.org/1999/xlink" width="855.725937pt" height="572.999625pt" viewBox="0 0 855.725937 572.999625" xmlns="http://www.w3.org/2000/svg" version="1.1">
 <metadata>
  <rdf:RDF xmlns:dc="http://purl.org/dc/elements/1.1/" xmlns:cc="http://creativecommons.org/ns#" xmlns:rdf="http://www.w3.org/1999/02/22-rdf-syntax-ns#">
   <cc:Work>
    <dc:type rdf:resource="http://purl.org/dc/dcmitype/StillImage"/>
    <dc:date>2025-07-24T13:45:59.727939</dc:date>
    <dc:format>image/svg+xml</dc:format>
    <dc:creator>
     <cc:Agent>
      <dc:title>Matplotlib v3.10.3, https://matplotlib.org/</dc:title>
     </cc:Agent>
    </dc:creator>
   </cc:Work>
  </rdf:RDF>
 </metadata>
 <defs>
  <style type="text/css">*{stroke-linejoin: round; stroke-linecap: butt}</style>
 </defs>
 <g id="figure_1">
  <g id="patch_1">
   <path d="M 0 572.999625 
L 855.725937 572.999625 
L 855.725937 0 
L 0 0 
z
" style="fill: #ffffff"/>
  </g>
  <g id="axes_1">
   <g id="patch_2">
    <path d="M 52.135938 231.72 
L 419.000938 231.72 
L 419.000938 7.2 
L 52.135938 7.2 
z
" style="fill: #ffffff"/>
   </g>
   <g id="matplotlib.axis_1">
    <g id="xtick_1">
     <g id="line2d_1">
      <defs>
       <path id="mc1b9737fca" d="M 0 0 
L 0 3.5 
" style="stroke: #000000; stroke-width: 0.8"/>
      </defs>
      <g>
       <use xlink:href="#mc1b9737fca" x="68.811619" y="231.72" style="stroke: #000000; stroke-width: 0.8"/>
      </g>
     </g>
     <g id="text_1">
      <!-- 0 -->
      <g transform="translate(65.879588 246.71375) scale(0.1 -0.1)">
       <defs>
        <path id="MicrosoftYaHei-30" d="M 284 2325 
Q 284 3606 709 4264 
Q 1134 4922 1941 4922 
Q 3478 4922 3478 2441 
Q 3478 1216 3045 567 
Q 2613 -81 1831 -81 
Q 1094 -81 689 534 
Q 284 1150 284 2325 
z
M 909 2353 
Q 909 425 1888 425 
Q 2850 425 2850 2384 
Q 2850 4413 1906 4413 
Q 909 4413 909 2353 
z
" transform="scale(0.015625)"/>
       </defs>
       <use xlink:href="#MicrosoftYaHei-30"/>
      </g>
     </g>
    </g>
    <g id="xtick_2">
     <g id="line2d_2">
      <g>
       <use xlink:href="#mc1b9737fca" x="114.877039" y="231.72" style="stroke: #000000; stroke-width: 0.8"/>
      </g>
     </g>
     <g id="text_2">
      <!-- 50 -->
      <g transform="translate(109.012976 246.71375) scale(0.1 -0.1)">
       <defs>
        <path id="MicrosoftYaHei-35" d="M 3294 1494 
Q 3294 784 2823 350 
Q 2353 -84 1559 -84 
Q 878 -84 544 119 
L 544 744 
Q 1034 425 1544 425 
Q 2050 425 2361 704 
Q 2672 984 2672 1447 
Q 2672 1909 2348 2167 
Q 2025 2425 1434 2425 
Q 978 2425 613 2384 
L 791 4841 
L 3053 4841 
L 3053 4303 
L 1306 4303 
L 1206 2931 
L 1647 2950 
Q 2416 2950 2855 2567 
Q 3294 2184 3294 1494 
z
" transform="scale(0.015625)"/>
       </defs>
       <use xlink:href="#MicrosoftYaHei-35"/>
       <use xlink:href="#MicrosoftYaHei-30" transform="translate(58.642578 0)"/>
      </g>
     </g>
    </g>
    <g id="xtick_3">
     <g id="line2d_3">
      <g>
       <use xlink:href="#mc1b9737fca" x="160.942458" y="231.72" style="stroke: #000000; stroke-width: 0.8"/>
      </g>
     </g>
     <g id="text_3">
      <!-- 100 -->
      <g transform="translate(152.146364 246.71375) scale(0.1 -0.1)">
       <defs>
        <path id="MicrosoftYaHei-31" d="M 1781 0 
L 1781 4141 
Q 1638 3997 1295 3819 
Q 953 3641 663 3569 
L 663 4169 
Q 1047 4275 1484 4508 
Q 1922 4741 2156 4947 
L 2388 4947 
L 2388 0 
L 1781 0 
z
" transform="scale(0.015625)"/>
       </defs>
       <use xlink:href="#MicrosoftYaHei-31"/>
       <use xlink:href="#MicrosoftYaHei-30" transform="translate(58.642578 0)"/>
       <use xlink:href="#MicrosoftYaHei-30" transform="translate(117.285156 0)"/>
      </g>
     </g>
    </g>
    <g id="xtick_4">
     <g id="line2d_4">
      <g>
       <use xlink:href="#mc1b9737fca" x="207.007877" y="231.72" style="stroke: #000000; stroke-width: 0.8"/>
      </g>
     </g>
     <g id="text_4">
      <!-- 150 -->
      <g transform="translate(198.211784 246.71375) scale(0.1 -0.1)">
       <use xlink:href="#MicrosoftYaHei-31"/>
       <use xlink:href="#MicrosoftYaHei-35" transform="translate(58.642578 0)"/>
       <use xlink:href="#MicrosoftYaHei-30" transform="translate(117.285156 0)"/>
      </g>
     </g>
    </g>
    <g id="xtick_5">
     <g id="line2d_5">
      <g>
       <use xlink:href="#mc1b9737fca" x="253.073297" y="231.72" style="stroke: #000000; stroke-width: 0.8"/>
      </g>
     </g>
     <g id="text_5">
      <!-- 200 -->
      <g transform="translate(244.277203 246.71375) scale(0.1 -0.1)">
       <defs>
        <path id="MicrosoftYaHei-32" d="M 2666 3572 
Q 2666 3963 2419 4186 
Q 2172 4409 1747 4409 
Q 1447 4409 1140 4256 
Q 834 4103 569 3819 
L 569 4413 
Q 806 4659 1107 4790 
Q 1409 4922 1816 4922 
Q 2472 4922 2872 4570 
Q 3272 4219 3272 3619 
Q 3272 3084 3026 2693 
Q 2781 2303 2188 1894 
Q 1581 1475 1376 1294 
Q 1172 1113 1090 947 
Q 1009 781 1009 544 
L 3416 544 
L 3416 0 
L 372 0 
L 372 241 
Q 372 659 486 951 
Q 600 1244 862 1520 
Q 1125 1797 1681 2184 
Q 2250 2584 2458 2886 
Q 2666 3188 2666 3572 
z
" transform="scale(0.015625)"/>
       </defs>
       <use xlink:href="#MicrosoftYaHei-32"/>
       <use xlink:href="#MicrosoftYaHei-30" transform="translate(58.642578 0)"/>
       <use xlink:href="#MicrosoftYaHei-30" transform="translate(117.285156 0)"/>
      </g>
     </g>
    </g>
    <g id="xtick_6">
     <g id="line2d_6">
      <g>
       <use xlink:href="#mc1b9737fca" x="299.138716" y="231.72" style="stroke: #000000; stroke-width: 0.8"/>
      </g>
     </g>
     <g id="text_6">
      <!-- 250 -->
      <g transform="translate(290.342623 246.71375) scale(0.1 -0.1)">
       <use xlink:href="#MicrosoftYaHei-32"/>
       <use xlink:href="#MicrosoftYaHei-35" transform="translate(58.642578 0)"/>
       <use xlink:href="#MicrosoftYaHei-30" transform="translate(117.285156 0)"/>
      </g>
     </g>
    </g>
    <g id="xtick_7">
     <g id="line2d_7">
      <g>
       <use xlink:href="#mc1b9737fca" x="345.204136" y="231.72" style="stroke: #000000; stroke-width: 0.8"/>
      </g>
     </g>
     <g id="text_7">
      <!-- 300 -->
      <g transform="translate(336.408042 246.71375) scale(0.1 -0.1)">
       <defs>
        <path id="MicrosoftYaHei-33" d="M 447 809 
Q 944 425 1569 425 
Q 2069 425 2361 670 
Q 2653 916 2653 1328 
Q 2653 2247 1338 2247 
L 934 2247 
L 934 2753 
L 1319 2753 
Q 2484 2753 2484 3616 
Q 2484 4413 1594 4413 
Q 1084 4413 634 4069 
L 634 4647 
Q 1109 4922 1744 4922 
Q 2363 4922 2738 4598 
Q 3113 4275 3113 3759 
Q 3113 2809 2144 2538 
L 2144 2525 
Q 2669 2469 2973 2155 
Q 3278 1841 3278 1372 
Q 3278 719 2808 319 
Q 2338 -81 1556 -81 
Q 869 -81 447 175 
L 447 809 
z
" transform="scale(0.015625)"/>
       </defs>
       <use xlink:href="#MicrosoftYaHei-33"/>
       <use xlink:href="#MicrosoftYaHei-30" transform="translate(58.642578 0)"/>
       <use xlink:href="#MicrosoftYaHei-30" transform="translate(117.285156 0)"/>
      </g>
     </g>
    </g>
    <g id="xtick_8">
     <g id="line2d_8">
      <g>
       <use xlink:href="#mc1b9737fca" x="391.269555" y="231.72" style="stroke: #000000; stroke-width: 0.8"/>
      </g>
     </g>
     <g id="text_8">
      <!-- 350 -->
      <g transform="translate(382.473461 246.71375) scale(0.1 -0.1)">
       <use xlink:href="#MicrosoftYaHei-33"/>
       <use xlink:href="#MicrosoftYaHei-35" transform="translate(58.642578 0)"/>
       <use xlink:href="#MicrosoftYaHei-30" transform="translate(117.285156 0)"/>
      </g>
     </g>
    </g>
    <g id="text_9">
     <!-- 迭代次数 -->
     <g transform="translate(215.568438 261.193437) scale(0.1 -0.1)">
      <defs>
       <path id="MicrosoftYaHei-8fed" d="M 1806 2653 
L 3750 2653 
Q 3788 3141 3788 3772 
L 2769 3772 
Q 2581 3297 2381 2922 
Q 2219 3028 1944 3147 
Q 2431 4003 2669 5047 
L 3156 4941 
Q 3044 4553 2931 4209 
L 3794 4209 
Q 3800 4684 3800 5234 
L 4281 5234 
Q 4281 4666 4275 4209 
L 5900 4209 
L 5900 3772 
L 4269 3772 
Q 4269 3053 4231 2653 
L 6181 2653 
L 6181 2216 
L 4175 2216 
Q 4150 2078 4106 1947 
Q 5263 1178 6000 591 
L 5656 159 
Q 4956 778 3919 1509 
Q 3463 691 2338 97 
Q 2163 347 2000 503 
Q 3481 1247 3681 2216 
L 1806 2216 
L 1806 2653 
z
M 2688 -241 
Q 4256 -266 6319 -216 
Q 6206 -441 6113 -697 
Q 3938 -716 2638 -691 
Q 1575 -678 1088 22 
Q 906 -122 356 -778 
L 88 -247 
Q 475 103 863 434 
L 863 2616 
L 150 2616 
L 150 3072 
L 1350 3072 
L 1350 334 
Q 1794 -209 2688 -241 
z
M 856 5178 
Q 1175 4791 1731 3997 
L 1288 3684 
Q 781 4478 456 4909 
L 856 5178 
z
" transform="scale(0.015625)"/>
       <path id="MicrosoftYaHei-4ee3" d="M 1850 3141 
L 3328 3303 
Q 3253 4097 3225 5284 
L 3769 5284 
Q 3756 4350 3847 3359 
L 6138 3609 
L 6194 3147 
L 3897 2894 
Q 4250 306 5256 -209 
Q 5531 -322 5613 -28 
Q 5731 416 5813 978 
Q 6075 866 6313 797 
Q 6219 191 6088 -278 
Q 5919 -822 5419 -809 
Q 4881 -791 4394 -166 
Q 3669 678 3384 2838 
L 1925 2678 
L 1850 3141 
z
M 38 2322 
Q 1013 3634 1581 5322 
L 2081 5147 
Q 1803 4419 1500 3794 
L 1500 -841 
L 988 -841 
L 988 2834 
Q 631 2238 250 1759 
Q 163 2016 38 2322 
z
M 4344 4791 
L 4669 5122 
Q 5219 4703 5794 4191 
L 5413 3803 
Q 4888 4341 4344 4791 
z
" transform="scale(0.015625)"/>
       <path id="MicrosoftYaHei-6b21" d="M 4119 3472 
Q 4113 3159 4091 2856 
Q 4509 728 6319 -284 
Q 6063 -559 5913 -772 
Q 4344 331 3900 1944 
Q 3491 200 1650 -866 
Q 1525 -672 1306 -422 
Q 3225 591 3525 2428 
Q 3613 2878 3619 3472 
L 4119 3472 
z
M 4944 2647 
Q 5225 3166 5450 3766 
L 2991 3766 
Q 2719 3144 2388 2572 
Q 2163 2734 1938 2841 
Q 2669 4034 3000 5309 
L 3506 5166 
Q 3356 4675 3175 4209 
L 5988 4209 
L 5988 3766 
Q 5731 3072 5425 2466 
Q 5213 2572 4944 2647 
z
M 1388 2622 
Q 1675 2403 1875 2284 
Q 1075 859 575 -178 
L 69 153 
Q 713 1128 1388 2622 
z
M 644 4916 
Q 1150 4409 1781 3672 
L 1375 3297 
Q 769 4097 281 4591 
L 644 4916 
z
" transform="scale(0.015625)"/>
       <path id="MicrosoftYaHei-6570" d="M 4175 5303 
L 4675 5228 
Q 4544 4622 4369 4097 
L 6281 4097 
L 6281 3672 
L 5888 3672 
Q 5731 1834 5088 753 
Q 5594 66 6375 -372 
Q 6175 -647 6038 -866 
Q 5275 -372 4769 309 
Q 4194 -403 3400 -928 
Q 3263 -747 3044 -534 
Q 3919 41 4463 772 
Q 3956 1647 3794 2791 
Q 3663 2559 3519 2359 
Q 3394 2541 3206 2759 
Q 3931 3803 4175 5303 
z
M 150 1697 
L 1100 1697 
Q 1238 1934 1369 2184 
L 1819 2041 
Q 1719 1866 1619 1697 
L 3150 1697 
L 3150 1291 
Q 2913 678 2431 216 
Q 2775 53 3131 -109 
L 2856 -541 
Q 2469 -322 2050 -103 
Q 1344 -609 269 -903 
Q 169 -703 56 -466 
Q 969 -259 1600 128 
Q 1063 403 475 691 
Q 675 978 863 1284 
L 150 1284 
L 150 1697 
z
M 219 3847 
L 1656 3847 
L 1656 5247 
L 2119 5247 
L 2119 3847 
L 3319 3847 
L 3319 3434 
L 2119 3434 
L 2119 3053 
L 2306 3266 
Q 2888 2841 3281 2516 
L 2981 2166 
Q 2638 2491 2119 2897 
L 2119 2184 
L 1656 2184 
L 1656 3059 
Q 1088 2466 331 2016 
Q 213 2197 63 2397 
Q 850 2822 1506 3434 
L 219 3434 
L 219 3847 
z
M 5388 3672 
L 4219 3672 
Q 4188 3591 4150 3516 
Q 4263 2191 4775 1247 
Q 5275 2159 5388 3672 
z
M 1088 834 
Q 1531 634 2000 416 
Q 2431 784 2675 1284 
L 1375 1284 
Q 1231 1053 1088 834 
z
M 3038 5091 
L 3425 4834 
Q 3081 4384 2738 4003 
Q 2594 4128 2400 4266 
Q 2725 4647 3038 5091 
z
M 381 4816 
L 738 5059 
Q 1019 4716 1319 4322 
L 931 4047 
Q 656 4453 381 4816 
z
" transform="scale(0.015625)"/>
      </defs>
      <use xlink:href="#MicrosoftYaHei-8fed"/>
      <use xlink:href="#MicrosoftYaHei-4ee3" transform="translate(100 0)"/>
      <use xlink:href="#MicrosoftYaHei-6b21" transform="translate(200 0)"/>
      <use xlink:href="#MicrosoftYaHei-6570" transform="translate(300 0)"/>
     </g>
    </g>
   </g>
   <g id="matplotlib.axis_2">
    <g id="ytick_1">
     <g id="line2d_9">
      <defs>
       <path id="m75d4213149" d="M 0 0 
L -3.5 0 
" style="stroke: #000000; stroke-width: 0.8"/>
      </defs>
      <g>
       <use xlink:href="#m75d4213149" x="52.135938" y="211.95077" style="stroke: #000000; stroke-width: 0.8"/>
      </g>
     </g>
     <g id="text_10">
      <!-- 1800 -->
      <g transform="translate(21.679688 215.947645) scale(0.1 -0.1)">
       <defs>
        <path id="MicrosoftYaHei-38" d="M 306 1350 
Q 306 1769 556 2122 
Q 806 2475 1200 2625 
Q 884 2803 700 3081 
Q 516 3359 516 3684 
Q 516 4028 692 4312 
Q 869 4597 1183 4759 
Q 1497 4922 1875 4922 
Q 2256 4922 2572 4761 
Q 2888 4600 3063 4315 
Q 3238 4031 3238 3684 
Q 3238 3366 3058 3086 
Q 2878 2806 2559 2625 
Q 2953 2472 3200 2119 
Q 3447 1766 3447 1350 
Q 3447 938 3250 611 
Q 3053 284 2690 103 
Q 2328 -78 1875 -78 
Q 1425 -78 1065 103 
Q 706 284 506 612 
Q 306 941 306 1350 
z
M 906 1378 
Q 906 947 1172 687 
Q 1438 428 1878 428 
Q 2309 428 2582 692 
Q 2856 956 2856 1378 
Q 2856 1778 2579 2051 
Q 2303 2325 1878 2325 
Q 1456 2325 1181 2058 
Q 906 1791 906 1378 
z
M 1081 3634 
Q 1081 3309 1312 3076 
Q 1544 2844 1878 2844 
Q 2206 2844 2445 3078 
Q 2684 3313 2684 3634 
Q 2684 3963 2454 4191 
Q 2225 4419 1878 4419 
Q 1534 4419 1307 4195 
Q 1081 3972 1081 3634 
z
" transform="scale(0.015625)"/>
       </defs>
       <use xlink:href="#MicrosoftYaHei-31"/>
       <use xlink:href="#MicrosoftYaHei-38" transform="translate(58.642578 0)"/>
       <use xlink:href="#MicrosoftYaHei-30" transform="translate(117.285156 0)"/>
       <use xlink:href="#MicrosoftYaHei-30" transform="translate(175.927734 0)"/>
      </g>
     </g>
    </g>
    <g id="ytick_2">
     <g id="line2d_10">
      <g>
       <use xlink:href="#m75d4213149" x="52.135938" y="185.264719" style="stroke: #000000; stroke-width: 0.8"/>
      </g>
     </g>
     <g id="text_11">
      <!-- 1850 -->
      <g transform="translate(21.679688 189.261594) scale(0.1 -0.1)">
       <use xlink:href="#MicrosoftYaHei-31"/>
       <use xlink:href="#MicrosoftYaHei-38" transform="translate(58.642578 0)"/>
       <use xlink:href="#MicrosoftYaHei-35" transform="translate(117.285156 0)"/>
       <use xlink:href="#MicrosoftYaHei-30" transform="translate(175.927734 0)"/>
      </g>
     </g>
    </g>
    <g id="ytick_3">
     <g id="line2d_11">
      <g>
       <use xlink:href="#m75d4213149" x="52.135938" y="158.578669" style="stroke: #000000; stroke-width: 0.8"/>
      </g>
     </g>
     <g id="text_12">
      <!-- 1900 -->
      <g transform="translate(21.679688 162.575544) scale(0.1 -0.1)">
       <defs>
        <path id="MicrosoftYaHei-39" d="M 578 656 
Q 978 425 1441 425 
Q 2091 425 2448 937 
Q 2806 1450 2806 2394 
Q 2800 2388 2794 2394 
Q 2475 1788 1722 1788 
Q 1113 1788 713 2206 
Q 313 2625 313 3294 
Q 313 4006 750 4464 
Q 1188 4922 1884 4922 
Q 2606 4922 3012 4355 
Q 3419 3788 3419 2703 
Q 3419 1363 2894 641 
Q 2369 -81 1441 -81 
Q 931 -81 578 84 
L 578 656 
z
M 931 3372 
Q 931 2884 1181 2598 
Q 1431 2313 1872 2313 
Q 2253 2313 2512 2573 
Q 2772 2834 2772 3206 
Q 2772 3728 2514 4070 
Q 2256 4413 1834 4413 
Q 1444 4413 1187 4116 
Q 931 3819 931 3372 
z
" transform="scale(0.015625)"/>
       </defs>
       <use xlink:href="#MicrosoftYaHei-31"/>
       <use xlink:href="#MicrosoftYaHei-39" transform="translate(58.642578 0)"/>
       <use xlink:href="#MicrosoftYaHei-30" transform="translate(117.285156 0)"/>
       <use xlink:href="#MicrosoftYaHei-30" transform="translate(175.927734 0)"/>
      </g>
     </g>
    </g>
    <g id="ytick_4">
     <g id="line2d_12">
      <g>
       <use xlink:href="#m75d4213149" x="52.135938" y="131.892619" style="stroke: #000000; stroke-width: 0.8"/>
      </g>
     </g>
     <g id="text_13">
      <!-- 1950 -->
      <g transform="translate(21.679688 135.889494) scale(0.1 -0.1)">
       <use xlink:href="#MicrosoftYaHei-31"/>
       <use xlink:href="#MicrosoftYaHei-39" transform="translate(58.642578 0)"/>
       <use xlink:href="#MicrosoftYaHei-35" transform="translate(117.285156 0)"/>
       <use xlink:href="#MicrosoftYaHei-30" transform="translate(175.927734 0)"/>
      </g>
     </g>
    </g>
    <g id="ytick_5">
     <g id="line2d_13">
      <g>
       <use xlink:href="#m75d4213149" x="52.135938" y="105.206569" style="stroke: #000000; stroke-width: 0.8"/>
      </g>
     </g>
     <g id="text_14">
      <!-- 2000 -->
      <g transform="translate(21.679688 109.203444) scale(0.1 -0.1)">
       <use xlink:href="#MicrosoftYaHei-32"/>
       <use xlink:href="#MicrosoftYaHei-30" transform="translate(58.642578 0)"/>
       <use xlink:href="#MicrosoftYaHei-30" transform="translate(117.285156 0)"/>
       <use xlink:href="#MicrosoftYaHei-30" transform="translate(175.927734 0)"/>
      </g>
     </g>
    </g>
    <g id="ytick_6">
     <g id="line2d_14">
      <g>
       <use xlink:href="#m75d4213149" x="52.135938" y="78.520519" style="stroke: #000000; stroke-width: 0.8"/>
      </g>
     </g>
     <g id="text_15">
      <!-- 2050 -->
      <g transform="translate(21.679688 82.517394) scale(0.1 -0.1)">
       <use xlink:href="#MicrosoftYaHei-32"/>
       <use xlink:href="#MicrosoftYaHei-30" transform="translate(58.642578 0)"/>
       <use xlink:href="#MicrosoftYaHei-35" transform="translate(117.285156 0)"/>
       <use xlink:href="#MicrosoftYaHei-30" transform="translate(175.927734 0)"/>
      </g>
     </g>
    </g>
    <g id="ytick_7">
     <g id="line2d_15">
      <g>
       <use xlink:href="#m75d4213149" x="52.135938" y="51.834469" style="stroke: #000000; stroke-width: 0.8"/>
      </g>
     </g>
     <g id="text_16">
      <!-- 2100 -->
      <g transform="translate(21.679688 55.831344) scale(0.1 -0.1)">
       <use xlink:href="#MicrosoftYaHei-32"/>
       <use xlink:href="#MicrosoftYaHei-31" transform="translate(58.642578 0)"/>
       <use xlink:href="#MicrosoftYaHei-30" transform="translate(117.285156 0)"/>
       <use xlink:href="#MicrosoftYaHei-30" transform="translate(175.927734 0)"/>
      </g>
     </g>
    </g>
    <g id="ytick_8">
     <g id="line2d_16">
      <g>
       <use xlink:href="#m75d4213149" x="52.135938" y="25.148418" style="stroke: #000000; stroke-width: 0.8"/>
      </g>
     </g>
     <g id="text_17">
      <!-- 2150 -->
      <g transform="translate(21.679688 29.145293) scale(0.1 -0.1)">
       <use xlink:href="#MicrosoftYaHei-32"/>
       <use xlink:href="#MicrosoftYaHei-31" transform="translate(58.642578 0)"/>
       <use xlink:href="#MicrosoftYaHei-35" transform="translate(117.285156 0)"/>
       <use xlink:href="#MicrosoftYaHei-30" transform="translate(175.927734 0)"/>
      </g>
     </g>
    </g>
    <g id="text_18">
     <!-- 适应度(Fitness) -->
     <g transform="translate(15.19375 154.1975) rotate(-90) scale(0.1 -0.1)">
      <defs>
       <path id="MicrosoftYaHei-9002" d="M 2425 2441 
L 3825 2441 
L 3825 3222 
L 1875 3222 
L 1875 3672 
L 3825 3672 
L 3825 4491 
Q 3050 4444 2225 4397 
Q 2194 4597 2138 4841 
Q 4288 4934 5844 5097 
L 5938 4641 
Q 5153 4581 4313 4525 
L 4313 3672 
L 6269 3672 
L 6269 3222 
L 4313 3222 
L 4313 2441 
L 5725 2441 
L 5725 216 
L 5250 216 
L 5250 503 
L 2900 503 
L 2900 216 
L 2425 216 
L 2425 2441 
z
M 2663 -203 
L 4444 -228 
L 6288 -178 
Q 6194 -434 6113 -672 
L 4344 -672 
L 2581 -647 
Q 1513 -634 1069 84 
Q 813 -153 319 -753 
L 63 -234 
Q 631 313 875 541 
L 875 2641 
L 131 2641 
L 131 3103 
L 1356 3103 
L 1356 403 
Q 1744 -191 2663 -203 
z
M 5250 2016 
L 2900 2016 
L 2900 928 
L 5250 928 
L 5250 2016 
z
M 856 5203 
Q 1325 4603 1731 4022 
L 1288 3709 
Q 894 4334 456 4934 
L 856 5203 
z
" transform="scale(0.015625)"/>
       <path id="MicrosoftYaHei-5e94" d="M 2969 5134 
L 3425 5378 
Q 3694 5034 3938 4634 
L 3634 4459 
L 6169 4459 
L 6169 3984 
L 1300 3984 
L 1300 2453 
Q 1300 241 388 -853 
Q 238 -647 25 -422 
Q 775 416 775 2441 
L 775 4459 
L 3419 4459 
Q 3216 4803 2969 5134 
z
M 1263 -9 
L 4153 -9 
Q 4641 1238 5188 3403 
L 5731 3253 
Q 5147 1191 4694 -9 
L 6238 -9 
L 6238 -484 
L 1263 -484 
L 1263 -9 
z
M 1600 3059 
L 2075 3222 
Q 2463 2084 2825 672 
L 2294 509 
Q 2006 1747 1600 3059 
z
M 3106 3372 
L 3588 3509 
Q 3913 2384 4163 991 
L 3613 847 
Q 3431 2084 3106 3372 
z
" transform="scale(0.015625)"/>
       <path id="MicrosoftYaHei-5ea6" d="M 1550 1216 
L 1550 1628 
L 5469 1628 
L 5469 1222 
Q 4903 613 4147 163 
Q 5050 -200 6263 -309 
L 6019 -797 
Q 4625 -603 3644 -109 
Q 2600 -619 1250 -866 
Q 1150 -666 994 -416 
Q 2231 -222 3166 166 
Q 2497 600 2066 1216 
L 1550 1216 
z
M 1363 3541 
L 2294 3541 
L 2294 4066 
L 2769 4066 
L 2769 3541 
L 4538 3541 
L 4538 4072 
L 5013 4072 
L 5013 3541 
L 6150 3541 
L 6150 3128 
L 5013 3128 
L 5013 1928 
L 4538 1928 
L 4538 2147 
L 2769 2147 
L 2769 1922 
L 2294 1922 
L 2294 3128 
L 1363 3128 
L 1363 3541 
z
M 3025 5172 
L 3481 5391 
Q 3694 5056 3909 4634 
L 6213 4634 
L 6213 4197 
L 1225 4197 
L 1225 2316 
Q 1225 178 394 -872 
Q 238 -666 38 -447 
Q 725 397 738 2347 
L 738 4634 
L 3331 4634 
Q 3188 4909 3025 5172 
z
M 2769 2547 
L 4538 2547 
L 4538 3128 
L 2769 3128 
L 2769 2547 
z
M 4819 1216 
L 2588 1216 
Q 3031 728 3656 391 
Q 4334 741 4819 1216 
z
" transform="scale(0.015625)"/>
       <path id="MicrosoftYaHei-28" d="M 1531 -1100 
Q 478 100 478 1847 
Q 478 3594 1531 4841 
L 2072 4841 
Q 1016 3544 1016 1853 
Q 1016 166 2066 -1100 
L 1531 -1100 
z
" transform="scale(0.015625)"/>
       <path id="MicrosoftYaHei-46" d="M 3119 4284 
L 1250 4284 
L 1250 2666 
L 2981 2666 
L 2981 2116 
L 1250 2116 
L 1250 0 
L 625 0 
L 625 4841 
L 3119 4841 
L 3119 4284 
z
" transform="scale(0.015625)"/>
       <path id="MicrosoftYaHei-69" d="M 472 4675 
Q 472 4838 583 4948 
Q 694 5059 856 5059 
Q 1022 5059 1136 4950 
Q 1250 4841 1250 4675 
Q 1250 4513 1136 4405 
Q 1022 4297 856 4297 
Q 691 4297 581 4405 
Q 472 4513 472 4675 
z
M 544 0 
L 544 3456 
L 1156 3456 
L 1156 0 
L 544 0 
z
" transform="scale(0.015625)"/>
       <path id="MicrosoftYaHei-74" d="M 2206 34 
Q 2006 -75 1666 -75 
Q 738 -75 738 953 
L 738 2950 
L 144 2950 
L 144 3456 
L 738 3456 
L 738 4288 
L 1347 4481 
L 1347 3456 
L 2206 3456 
L 2206 2950 
L 1347 2950 
L 1347 1063 
Q 1347 722 1462 575 
Q 1578 428 1847 428 
Q 2053 428 2206 544 
L 2206 34 
z
" transform="scale(0.015625)"/>
       <path id="MicrosoftYaHei-6e" d="M 3469 0 
L 2859 0 
L 2859 1966 
Q 2859 3031 2081 3031 
Q 1678 3031 1418 2731 
Q 1159 2431 1159 1972 
L 1159 0 
L 547 0 
L 547 3456 
L 1159 3456 
L 1159 2884 
L 1172 2884 
Q 1563 3538 2306 3538 
Q 2875 3538 3172 3173 
Q 3469 2809 3469 2113 
L 3469 0 
z
" transform="scale(0.015625)"/>
       <path id="MicrosoftYaHei-65" d="M 3363 1572 
L 944 1572 
Q 959 1019 1246 717 
Q 1534 416 2050 416 
Q 2631 416 3116 788 
L 3116 241 
Q 2659 -81 1906 -81 
Q 1156 -81 736 394 
Q 316 869 316 1713 
Q 316 2506 777 3022 
Q 1238 3538 1922 3538 
Q 2600 3538 2981 3102 
Q 3363 2666 3363 1881 
L 3363 1572 
z
M 2750 2063 
Q 2747 2531 2528 2787 
Q 2309 3044 1913 3044 
Q 1547 3044 1280 2772 
Q 1013 2500 944 2063 
L 2750 2063 
z
" transform="scale(0.015625)"/>
       <path id="MicrosoftYaHei-73" d="M 353 747 
Q 816 413 1350 413 
Q 2066 413 2066 881 
Q 2066 1081 1909 1211 
Q 1753 1341 1275 1519 
Q 700 1750 528 1976 
Q 356 2203 356 2525 
Q 356 2984 745 3261 
Q 1134 3538 1703 3538 
Q 2144 3538 2522 3384 
L 2522 2794 
Q 2134 3044 1644 3044 
Q 1350 3044 1165 2916 
Q 981 2788 981 2578 
Q 981 2372 1114 2256 
Q 1247 2141 1703 1959 
Q 2281 1744 2484 1512 
Q 2688 1281 2688 941 
Q 2688 466 2298 192 
Q 1909 -81 1291 -81 
Q 753 -81 353 122 
L 353 747 
z
" transform="scale(0.015625)"/>
       <path id="MicrosoftYaHei-29" d="M 78 -1100 
Q 1131 163 1131 1853 
Q 1131 3547 72 4841 
L 616 4841 
Q 1672 3603 1672 1847 
Q 1672 91 616 -1100 
L 78 -1100 
z
" transform="scale(0.015625)"/>
      </defs>
      <use xlink:href="#MicrosoftYaHei-9002"/>
      <use xlink:href="#MicrosoftYaHei-5e94" transform="translate(100 0)"/>
      <use xlink:href="#MicrosoftYaHei-5ea6" transform="translate(200 0)"/>
      <use xlink:href="#MicrosoftYaHei-28" transform="translate(300 0)"/>
      <use xlink:href="#MicrosoftYaHei-46" transform="translate(333.398438 0)"/>
      <use xlink:href="#MicrosoftYaHei-69" transform="translate(386.523438 0)"/>
      <use xlink:href="#MicrosoftYaHei-74" transform="translate(413.134766 0)"/>
      <use xlink:href="#MicrosoftYaHei-6e" transform="translate(450.390625 0)"/>
      <use xlink:href="#MicrosoftYaHei-65" transform="translate(512.011719 0)"/>
      <use xlink:href="#MicrosoftYaHei-73" transform="translate(568.75 0)"/>
      <use xlink:href="#MicrosoftYaHei-73" transform="translate(615.039062 0)"/>
      <use xlink:href="#MicrosoftYaHei-29" transform="translate(661.328125 0)"/>
     </g>
    </g>
   </g>
   <g id="line2d_17">
    <path d="M 68.811619 17.405455 
L 69.732928 18.105144 
L 70.654236 18.105144 
L 71.575544 21.454575 
L 74.33947 35.883689 
L 75.260778 50.081235 
L 76.182086 68.237419 
L 81.709937 68.237419 
L 82.631245 90.186853 
L 83.552554 90.608075 
L 87.237787 90.608075 
L 88.159095 106.394981 
L 89.080404 106.394981 
L 90.923021 129.261794 
L 94.608254 129.261794 
L 95.529563 138.008707 
L 98.293488 138.008707 
L 99.214796 142.72784 
L 103.821338 142.72784 
L 104.742646 148.979259 
L 105.663955 158.416605 
L 111.191805 158.416605 
L 112.113114 160.056969 
L 116.719655 160.056969 
L 117.640964 163.149687 
L 129.617973 163.149687 
L 130.539281 165.945411 
L 131.46059 180.269301 
L 135.145823 180.269301 
L 136.067132 184.24532 
L 142.51629 184.24532 
L 143.437599 185.421723 
L 152.650683 185.421723 
L 153.571991 186.049781 
L 174.762084 186.049781 
L 175.683392 188.506436 
L 207.929186 188.506436 
L 208.850494 190.161644 
L 215.299653 190.161644 
L 216.220961 195.705434 
L 217.14227 197.164452 
L 272.420773 197.164452 
L 273.342081 198.094285 
L 289.004324 198.094285 
L 289.925632 200.672301 
L 305.587875 200.672301 
L 306.509183 221.514545 
L 402.325256 221.514545 
L 402.325256 221.514545 
" clip-path="url(#p7dbcd4fe45)" style="fill: none; stroke: #005baa; stroke-width: 1.5; stroke-linecap: square"/>
   </g>
   <g id="patch_3">
    <path d="M 52.135938 231.72 
L 52.135938 7.2 
" style="fill: none; stroke: #000000; stroke-width: 0.8; stroke-linejoin: miter; stroke-linecap: square"/>
   </g>
   <g id="patch_4">
    <path d="M 419.000938 231.72 
L 419.000938 7.2 
" style="fill: none; stroke: #000000; stroke-width: 0.8; stroke-linejoin: miter; stroke-linecap: square"/>
   </g>
   <g id="patch_5">
    <path d="M 52.135938 231.72 
L 419.000938 231.72 
" style="fill: none; stroke: #000000; stroke-width: 0.8; stroke-linejoin: miter; stroke-linecap: square"/>
   </g>
   <g id="patch_6">
    <path d="M 52.135938 7.2 
L 419.000938 7.2 
" style="fill: none; stroke: #000000; stroke-width: 0.8; stroke-linejoin: miter; stroke-linecap: square"/>
   </g>
   <g id="text_19">
    <!-- (a)：n=3,N=80,mp=0.1,cp=0.6 -->
    <g transform="translate(147.718125 280.2165) scale(0.12 -0.12)">
     <defs>
      <path id="MicrosoftYaHei-61" d="M 628 3216 
Q 1144 3538 1819 3538 
Q 3069 3538 3069 2225 
L 3069 0 
L 2463 0 
L 2463 534 
L 2447 534 
Q 2088 -81 1388 -81 
Q 884 -81 587 191 
Q 291 463 291 925 
Q 291 1894 1438 2053 
L 2463 2197 
Q 2463 3044 1763 3044 
Q 1141 3044 628 2625 
L 628 3216 
z
M 1653 1625 
Q 1228 1569 1067 1412 
Q 906 1256 906 975 
Q 906 728 1081 572 
Q 1256 416 1544 416 
Q 1944 416 2203 697 
Q 2463 978 2463 1403 
L 2463 1734 
L 1653 1625 
z
" transform="scale(0.015625)"/>
      <path id="MicrosoftYaHei-ff1a" d="M 1606 3531 
Q 1772 3531 1890 3415 
Q 2009 3300 2009 3138 
Q 2009 2975 1893 2858 
Q 1778 2741 1606 2741 
Q 1434 2741 1318 2858 
Q 1203 2975 1203 3138 
Q 1203 3300 1322 3415 
Q 1441 3531 1606 3531 
z
M 1606 716 
Q 1772 716 1890 600 
Q 2009 484 2009 319 
Q 2009 150 1890 36 
Q 1772 -78 1606 -78 
Q 1441 -78 1322 36 
Q 1203 150 1203 319 
Q 1203 484 1322 600 
Q 1441 716 1606 716 
z
" transform="scale(0.015625)"/>
      <path id="MicrosoftYaHei-3d" d="M 3972 2497 
L 788 2497 
L 788 2969 
L 3972 2969 
L 3972 2497 
z
M 3972 1053 
L 788 1053 
L 788 1525 
L 3972 1525 
L 3972 1053 
z
" transform="scale(0.015625)"/>
      <path id="MicrosoftYaHei-2c" d="M 1109 778 
L 575 -888 
L 131 -888 
L 519 778 
L 1109 778 
z
" transform="scale(0.015625)"/>
      <path id="MicrosoftYaHei-4e" d="M 4578 0 
L 3838 0 
L 1403 3766 
Q 1300 3925 1238 4081 
L 1219 4081 
Q 1244 3919 1244 3403 
L 1244 0 
L 625 0 
L 625 4841 
L 1409 4841 
L 3778 1141 
Q 3947 878 3978 806 
L 3991 806 
Q 3959 1013 3959 1513 
L 3959 4841 
L 4578 4841 
L 4578 0 
z
" transform="scale(0.015625)"/>
      <path id="MicrosoftYaHei-6d" d="M 5522 0 
L 4909 0 
L 4909 1984 
Q 4909 2547 4734 2789 
Q 4559 3031 4159 3031 
Q 3822 3031 3581 2715 
Q 3341 2400 3341 1969 
L 3341 0 
L 2728 0 
L 2728 2047 
Q 2728 3031 1969 3031 
Q 1619 3031 1389 2731 
Q 1159 2431 1159 1966 
L 1159 0 
L 547 0 
L 547 3456 
L 1159 3456 
L 1159 2909 
L 1172 2909 
Q 1541 3538 2250 3538 
Q 2597 3538 2862 3347 
Q 3128 3156 3231 2831 
Q 3616 3538 4381 3538 
Q 5522 3538 5522 2131 
L 5522 0 
z
" transform="scale(0.015625)"/>
      <path id="MicrosoftYaHei-70" d="M 1159 488 
L 1159 -1591 
L 547 -1591 
L 547 3456 
L 1159 3456 
L 1159 2859 
L 1172 2859 
Q 1578 3538 2359 3538 
Q 3022 3538 3398 3073 
Q 3775 2609 3775 1828 
Q 3775 966 3348 442 
Q 2922 -81 2200 -81 
Q 1534 -81 1172 488 
L 1159 488 
z
M 1156 1425 
Q 1156 1003 1428 714 
Q 1700 425 2109 425 
Q 2597 425 2872 800 
Q 3147 1175 3147 1838 
Q 3147 2397 2890 2714 
Q 2634 3031 2191 3031 
Q 1738 3031 1447 2709 
Q 1156 2388 1156 1884 
L 1156 1425 
z
" transform="scale(0.015625)"/>
      <path id="MicrosoftYaHei-2e" d="M 372 322 
Q 372 491 487 606 
Q 603 722 775 722 
Q 950 722 1065 605 
Q 1181 488 1181 322 
Q 1181 159 1065 42 
Q 950 -75 772 -75 
Q 600 -75 486 42 
Q 372 159 372 322 
z
" transform="scale(0.015625)"/>
      <path id="MicrosoftYaHei-63" d="M 2934 156 
Q 2538 -81 1978 -81 
Q 1228 -81 772 400 
Q 316 881 316 1647 
Q 316 2497 808 3017 
Q 1300 3538 2125 3538 
Q 2600 3538 2938 3369 
L 2938 2763 
Q 2572 3031 2125 3031 
Q 1600 3031 1270 2667 
Q 941 2303 941 1697 
Q 941 1100 1252 762 
Q 1563 425 2091 425 
Q 2538 425 2934 719 
L 2934 156 
z
" transform="scale(0.015625)"/>
      <path id="MicrosoftYaHei-36" d="M 3181 4219 
Q 2803 4413 2391 4413 
Q 1763 4413 1381 3866 
Q 1000 3319 994 2372 
L 1009 2372 
Q 1353 3038 2106 3038 
Q 2734 3038 3109 2628 
Q 3484 2219 3484 1541 
Q 3484 831 3051 375 
Q 2619 -81 1947 -81 
Q 1209 -81 789 495 
Q 369 1072 369 2131 
Q 369 3413 920 4167 
Q 1472 4922 2372 4922 
Q 2888 4922 3181 4781 
L 3181 4219 
z
M 1031 1584 
Q 1031 1106 1286 765 
Q 1541 425 1963 425 
Q 2363 425 2613 719 
Q 2863 1013 2863 1475 
Q 2863 1975 2627 2253 
Q 2391 2531 1956 2531 
Q 1544 2531 1287 2250 
Q 1031 1969 1031 1584 
z
" transform="scale(0.015625)"/>
     </defs>
     <use xlink:href="#MicrosoftYaHei-28"/>
     <use xlink:href="#MicrosoftYaHei-61" transform="translate(33.398438 0)"/>
     <use xlink:href="#MicrosoftYaHei-29" transform="translate(88.671875 0)"/>
     <use xlink:href="#MicrosoftYaHei-ff1a" transform="translate(122.070312 0)"/>
     <use xlink:href="#MicrosoftYaHei-6e" transform="translate(222.070312 0)"/>
     <use xlink:href="#MicrosoftYaHei-3d" transform="translate(283.691406 0)"/>
     <use xlink:href="#MicrosoftYaHei-33" transform="translate(357.861328 0)"/>
     <use xlink:href="#MicrosoftYaHei-2c" transform="translate(416.503906 0)"/>
     <use xlink:href="#MicrosoftYaHei-4e" transform="translate(440.576172 0)"/>
     <use xlink:href="#MicrosoftYaHei-3d" transform="translate(521.875 0)"/>
     <use xlink:href="#MicrosoftYaHei-38" transform="translate(596.044922 0)"/>
     <use xlink:href="#MicrosoftYaHei-30" transform="translate(654.6875 0)"/>
     <use xlink:href="#MicrosoftYaHei-2c" transform="translate(713.330078 0)"/>
     <use xlink:href="#MicrosoftYaHei-6d" transform="translate(737.402344 0)"/>
     <use xlink:href="#MicrosoftYaHei-70" transform="translate(831.103516 0)"/>
     <use xlink:href="#MicrosoftYaHei-3d" transform="translate(894.970703 0)"/>
     <use xlink:href="#MicrosoftYaHei-30" transform="translate(969.140625 0)"/>
     <use xlink:href="#MicrosoftYaHei-2e" transform="translate(1027.783203 0)"/>
     <use xlink:href="#MicrosoftYaHei-31" transform="translate(1051.855469 0)"/>
     <use xlink:href="#MicrosoftYaHei-2c" transform="translate(1110.498047 0)"/>
     <use xlink:href="#MicrosoftYaHei-63" transform="translate(1134.570312 0)"/>
     <use xlink:href="#MicrosoftYaHei-70" transform="translate(1184.716797 0)"/>
     <use xlink:href="#MicrosoftYaHei-3d" transform="translate(1248.583984 0)"/>
     <use xlink:href="#MicrosoftYaHei-30" transform="translate(1322.753906 0)"/>
     <use xlink:href="#MicrosoftYaHei-2e" transform="translate(1381.396484 0)"/>
     <use xlink:href="#MicrosoftYaHei-36" transform="translate(1405.46875 0)"/>
    </g>
   </g>
   <g id="legend_1">
    <g id="patch_7">
     <path d="M 408.000938 20.2 
L 412.000938 20.2 
Q 414.000938 20.2 414.000938 18.2 
L 414.000938 14.2 
Q 414.000938 12.2 412.000938 12.2 
L 408.000938 12.2 
Q 406.000938 12.2 406.000938 14.2 
L 406.000938 18.2 
Q 406.000938 20.2 408.000938 20.2 
z
" style="fill: #ffffff; opacity: 0.8; stroke: #cccccc; stroke-linejoin: miter"/>
    </g>
   </g>
  </g>
  <g id="axes_2">
   <g id="patch_8">
    <path d="M 481.660938 231.72 
L 848.525938 231.72 
L 848.525938 7.2 
L 481.660938 7.2 
z
" style="fill: #ffffff"/>
   </g>
   <g id="matplotlib.axis_3">
    <g id="xtick_9">
     <g id="line2d_18">
      <g>
       <use xlink:href="#mc1b9737fca" x="498.336619" y="231.72" style="stroke: #000000; stroke-width: 0.8"/>
      </g>
     </g>
     <g id="text_20">
      <!-- 0 -->
      <g transform="translate(495.404588 246.71375) scale(0.1 -0.1)">
       <use xlink:href="#MicrosoftYaHei-30"/>
      </g>
     </g>
    </g>
    <g id="xtick_10">
     <g id="line2d_19">
      <g>
       <use xlink:href="#mc1b9737fca" x="552.832312" y="231.72" style="stroke: #000000; stroke-width: 0.8"/>
      </g>
     </g>
     <g id="text_21">
      <!-- 50 -->
      <g transform="translate(546.968249 246.71375) scale(0.1 -0.1)">
       <use xlink:href="#MicrosoftYaHei-35"/>
       <use xlink:href="#MicrosoftYaHei-30" transform="translate(58.642578 0)"/>
      </g>
     </g>
    </g>
    <g id="xtick_11">
     <g id="line2d_20">
      <g>
       <use xlink:href="#mc1b9737fca" x="607.328004" y="231.72" style="stroke: #000000; stroke-width: 0.8"/>
      </g>
     </g>
     <g id="text_22">
      <!-- 100 -->
      <g transform="translate(598.53191 246.71375) scale(0.1 -0.1)">
       <use xlink:href="#MicrosoftYaHei-31"/>
       <use xlink:href="#MicrosoftYaHei-30" transform="translate(58.642578 0)"/>
       <use xlink:href="#MicrosoftYaHei-30" transform="translate(117.285156 0)"/>
      </g>
     </g>
    </g>
    <g id="xtick_12">
     <g id="line2d_21">
      <g>
       <use xlink:href="#mc1b9737fca" x="661.823696" y="231.72" style="stroke: #000000; stroke-width: 0.8"/>
      </g>
     </g>
     <g id="text_23">
      <!-- 150 -->
      <g transform="translate(653.027602 246.71375) scale(0.1 -0.1)">
       <use xlink:href="#MicrosoftYaHei-31"/>
       <use xlink:href="#MicrosoftYaHei-35" transform="translate(58.642578 0)"/>
       <use xlink:href="#MicrosoftYaHei-30" transform="translate(117.285156 0)"/>
      </g>
     </g>
    </g>
    <g id="xtick_13">
     <g id="line2d_22">
      <g>
       <use xlink:href="#mc1b9737fca" x="716.319388" y="231.72" style="stroke: #000000; stroke-width: 0.8"/>
      </g>
     </g>
     <g id="text_24">
      <!-- 200 -->
      <g transform="translate(707.523294 246.71375) scale(0.1 -0.1)">
       <use xlink:href="#MicrosoftYaHei-32"/>
       <use xlink:href="#MicrosoftYaHei-30" transform="translate(58.642578 0)"/>
       <use xlink:href="#MicrosoftYaHei-30" transform="translate(117.285156 0)"/>
      </g>
     </g>
    </g>
    <g id="xtick_14">
     <g id="line2d_23">
      <g>
       <use xlink:href="#mc1b9737fca" x="770.81508" y="231.72" style="stroke: #000000; stroke-width: 0.8"/>
      </g>
     </g>
     <g id="text_25">
      <!-- 250 -->
      <g transform="translate(762.018987 246.71375) scale(0.1 -0.1)">
       <use xlink:href="#MicrosoftYaHei-32"/>
       <use xlink:href="#MicrosoftYaHei-35" transform="translate(58.642578 0)"/>
       <use xlink:href="#MicrosoftYaHei-30" transform="translate(117.285156 0)"/>
      </g>
     </g>
    </g>
    <g id="xtick_15">
     <g id="line2d_24">
      <g>
       <use xlink:href="#mc1b9737fca" x="825.310773" y="231.72" style="stroke: #000000; stroke-width: 0.8"/>
      </g>
     </g>
     <g id="text_26">
      <!-- 300 -->
      <g transform="translate(816.514679 246.71375) scale(0.1 -0.1)">
       <use xlink:href="#MicrosoftYaHei-33"/>
       <use xlink:href="#MicrosoftYaHei-30" transform="translate(58.642578 0)"/>
       <use xlink:href="#MicrosoftYaHei-30" transform="translate(117.285156 0)"/>
      </g>
     </g>
    </g>
    <g id="text_27">
     <!-- 迭代次数 -->
     <g transform="translate(645.093438 261.193437) scale(0.1 -0.1)">
      <use xlink:href="#MicrosoftYaHei-8fed"/>
      <use xlink:href="#MicrosoftYaHei-4ee3" transform="translate(100 0)"/>
      <use xlink:href="#MicrosoftYaHei-6b21" transform="translate(200 0)"/>
      <use xlink:href="#MicrosoftYaHei-6570" transform="translate(300 0)"/>
     </g>
    </g>
   </g>
   <g id="matplotlib.axis_4">
    <g id="ytick_9">
     <g id="line2d_25">
      <g>
       <use xlink:href="#m75d4213149" x="481.660938" y="206.864883" style="stroke: #000000; stroke-width: 0.8"/>
      </g>
     </g>
     <g id="text_28">
      <!-- 3200 -->
      <g transform="translate(451.204688 210.861758) scale(0.1 -0.1)">
       <use xlink:href="#MicrosoftYaHei-33"/>
       <use xlink:href="#MicrosoftYaHei-32" transform="translate(58.642578 0)"/>
       <use xlink:href="#MicrosoftYaHei-30" transform="translate(117.285156 0)"/>
       <use xlink:href="#MicrosoftYaHei-30" transform="translate(175.927734 0)"/>
      </g>
     </g>
    </g>
    <g id="ytick_10">
     <g id="line2d_26">
      <g>
       <use xlink:href="#m75d4213149" x="481.660938" y="180.351934" style="stroke: #000000; stroke-width: 0.8"/>
      </g>
     </g>
     <g id="text_29">
      <!-- 3400 -->
      <g transform="translate(451.204688 184.348809) scale(0.1 -0.1)">
       <defs>
        <path id="MicrosoftYaHei-34" d="M 2906 4841 
L 2906 1644 
L 3631 1644 
L 3631 1138 
L 2906 1138 
L 2906 0 
L 2313 0 
L 2313 1138 
L 53 1138 
L 53 1616 
Q 656 2294 1265 3178 
Q 1875 4063 2272 4841 
L 2906 4841 
z
M 741 1644 
L 2313 1644 
L 2313 3950 
Q 1988 3366 1616 2817 
Q 1244 2269 741 1644 
z
" transform="scale(0.015625)"/>
       </defs>
       <use xlink:href="#MicrosoftYaHei-33"/>
       <use xlink:href="#MicrosoftYaHei-34" transform="translate(58.642578 0)"/>
       <use xlink:href="#MicrosoftYaHei-30" transform="translate(117.285156 0)"/>
       <use xlink:href="#MicrosoftYaHei-30" transform="translate(175.927734 0)"/>
      </g>
     </g>
    </g>
    <g id="ytick_11">
     <g id="line2d_27">
      <g>
       <use xlink:href="#m75d4213149" x="481.660938" y="153.838985" style="stroke: #000000; stroke-width: 0.8"/>
      </g>
     </g>
     <g id="text_30">
      <!-- 3600 -->
      <g transform="translate(451.204688 157.83586) scale(0.1 -0.1)">
       <use xlink:href="#MicrosoftYaHei-33"/>
       <use xlink:href="#MicrosoftYaHei-36" transform="translate(58.642578 0)"/>
       <use xlink:href="#MicrosoftYaHei-30" transform="translate(117.285156 0)"/>
       <use xlink:href="#MicrosoftYaHei-30" transform="translate(175.927734 0)"/>
      </g>
     </g>
    </g>
    <g id="ytick_12">
     <g id="line2d_28">
      <g>
       <use xlink:href="#m75d4213149" x="481.660938" y="127.326036" style="stroke: #000000; stroke-width: 0.8"/>
      </g>
     </g>
     <g id="text_31">
      <!-- 3800 -->
      <g transform="translate(451.204688 131.322911) scale(0.1 -0.1)">
       <use xlink:href="#MicrosoftYaHei-33"/>
       <use xlink:href="#MicrosoftYaHei-38" transform="translate(58.642578 0)"/>
       <use xlink:href="#MicrosoftYaHei-30" transform="translate(117.285156 0)"/>
       <use xlink:href="#MicrosoftYaHei-30" transform="translate(175.927734 0)"/>
      </g>
     </g>
    </g>
    <g id="ytick_13">
     <g id="line2d_29">
      <g>
       <use xlink:href="#m75d4213149" x="481.660938" y="100.813087" style="stroke: #000000; stroke-width: 0.8"/>
      </g>
     </g>
     <g id="text_32">
      <!-- 4000 -->
      <g transform="translate(451.204688 104.809962) scale(0.1 -0.1)">
       <use xlink:href="#MicrosoftYaHei-34"/>
       <use xlink:href="#MicrosoftYaHei-30" transform="translate(58.642578 0)"/>
       <use xlink:href="#MicrosoftYaHei-30" transform="translate(117.285156 0)"/>
       <use xlink:href="#MicrosoftYaHei-30" transform="translate(175.927734 0)"/>
      </g>
     </g>
    </g>
    <g id="ytick_14">
     <g id="line2d_30">
      <g>
       <use xlink:href="#m75d4213149" x="481.660938" y="74.300138" style="stroke: #000000; stroke-width: 0.8"/>
      </g>
     </g>
     <g id="text_33">
      <!-- 4200 -->
      <g transform="translate(451.204688 78.297013) scale(0.1 -0.1)">
       <use xlink:href="#MicrosoftYaHei-34"/>
       <use xlink:href="#MicrosoftYaHei-32" transform="translate(58.642578 0)"/>
       <use xlink:href="#MicrosoftYaHei-30" transform="translate(117.285156 0)"/>
       <use xlink:href="#MicrosoftYaHei-30" transform="translate(175.927734 0)"/>
      </g>
     </g>
    </g>
    <g id="ytick_15">
     <g id="line2d_31">
      <g>
       <use xlink:href="#m75d4213149" x="481.660938" y="47.787189" style="stroke: #000000; stroke-width: 0.8"/>
      </g>
     </g>
     <g id="text_34">
      <!-- 4400 -->
      <g transform="translate(451.204688 51.784064) scale(0.1 -0.1)">
       <use xlink:href="#MicrosoftYaHei-34"/>
       <use xlink:href="#MicrosoftYaHei-34" transform="translate(58.642578 0)"/>
       <use xlink:href="#MicrosoftYaHei-30" transform="translate(117.285156 0)"/>
       <use xlink:href="#MicrosoftYaHei-30" transform="translate(175.927734 0)"/>
      </g>
     </g>
    </g>
    <g id="ytick_16">
     <g id="line2d_32">
      <g>
       <use xlink:href="#m75d4213149" x="481.660938" y="21.27424" style="stroke: #000000; stroke-width: 0.8"/>
      </g>
     </g>
     <g id="text_35">
      <!-- 4600 -->
      <g transform="translate(451.204688 25.271115) scale(0.1 -0.1)">
       <use xlink:href="#MicrosoftYaHei-34"/>
       <use xlink:href="#MicrosoftYaHei-36" transform="translate(58.642578 0)"/>
       <use xlink:href="#MicrosoftYaHei-30" transform="translate(117.285156 0)"/>
       <use xlink:href="#MicrosoftYaHei-30" transform="translate(175.927734 0)"/>
      </g>
     </g>
    </g>
    <g id="text_36">
     <!-- 适应度(Fitness) -->
     <g transform="translate(444.71875 154.1975) rotate(-90) scale(0.1 -0.1)">
      <use xlink:href="#MicrosoftYaHei-9002"/>
      <use xlink:href="#MicrosoftYaHei-5e94" transform="translate(100 0)"/>
      <use xlink:href="#MicrosoftYaHei-5ea6" transform="translate(200 0)"/>
      <use xlink:href="#MicrosoftYaHei-28" transform="translate(300 0)"/>
      <use xlink:href="#MicrosoftYaHei-46" transform="translate(333.398438 0)"/>
      <use xlink:href="#MicrosoftYaHei-69" transform="translate(386.523438 0)"/>
      <use xlink:href="#MicrosoftYaHei-74" transform="translate(413.134766 0)"/>
      <use xlink:href="#MicrosoftYaHei-6e" transform="translate(450.390625 0)"/>
      <use xlink:href="#MicrosoftYaHei-65" transform="translate(512.011719 0)"/>
      <use xlink:href="#MicrosoftYaHei-73" transform="translate(568.75 0)"/>
      <use xlink:href="#MicrosoftYaHei-73" transform="translate(615.039062 0)"/>
      <use xlink:href="#MicrosoftYaHei-29" transform="translate(661.328125 0)"/>
     </g>
    </g>
   </g>
   <g id="line2d_33">
    <path d="M 498.336619 17.405455 
L 499.426533 34.785713 
L 500.516447 132.722238 
L 501.606361 143.666557 
L 502.696275 151.394388 
L 503.786189 151.719002 
L 504.876102 157.598615 
L 505.966016 167.39884 
L 507.05593 174.377936 
L 508.145844 176.004408 
L 509.235758 179.048212 
L 511.415585 179.048212 
L 512.505499 183.902573 
L 520.134896 183.902573 
L 521.22481 191.54134 
L 522.314724 191.54134 
L 523.404638 191.991882 
L 526.674379 191.991882 
L 527.764293 192.60916 
L 528.854207 195.996697 
L 531.034035 195.996697 
L 532.123948 196.75222 
L 533.213862 196.75222 
L 534.303776 197.191589 
L 535.39369 198.124378 
L 537.573518 198.124378 
L 538.663432 201.204581 
L 539.753345 201.204581 
L 540.843259 203.07687 
L 544.113001 203.07687 
L 545.202915 203.472828 
L 561.551622 203.472828 
L 564.821364 203.793099 
L 567.001192 203.793099 
L 568.091105 204.354385 
L 570.270933 204.354385 
L 571.360847 204.687954 
L 572.450761 207.742718 
L 602.968348 207.842133 
L 604.058262 210.280413 
L 610.597745 210.280413 
L 611.687659 212.425879 
L 612.777573 212.425879 
L 613.867487 214.258029 
L 619.317056 214.258029 
L 620.40697 215.028486 
L 628.036367 215.028486 
L 629.126281 215.538733 
L 632.396022 215.538733 
L 633.485936 216.653617 
L 642.205247 216.653617 
L 643.295161 217.208428 
L 644.385074 217.375467 
L 668.363179 217.375467 
L 669.453093 219.429628 
L 714.13956 219.429628 
L 715.229474 219.573588 
L 762.09577 219.573588 
L 763.185683 220.470804 
L 803.512496 220.470804 
L 804.60241 220.863852 
L 825.310773 220.863852 
L 826.400686 221.514545 
L 831.850256 221.514545 
L 831.850256 221.514545 
" clip-path="url(#p4326cb4e4f)" style="fill: none; stroke: #005baa; stroke-width: 1.5; stroke-linecap: square"/>
   </g>
   <g id="patch_9">
    <path d="M 481.660938 231.72 
L 481.660938 7.2 
" style="fill: none; stroke: #000000; stroke-width: 0.8; stroke-linejoin: miter; stroke-linecap: square"/>
   </g>
   <g id="patch_10">
    <path d="M 848.525938 231.72 
L 848.525938 7.2 
" style="fill: none; stroke: #000000; stroke-width: 0.8; stroke-linejoin: miter; stroke-linecap: square"/>
   </g>
   <g id="patch_11">
    <path d="M 481.660938 231.72 
L 848.525938 231.72 
" style="fill: none; stroke: #000000; stroke-width: 0.8; stroke-linejoin: miter; stroke-linecap: square"/>
   </g>
   <g id="patch_12">
    <path d="M 481.660938 7.2 
L 848.525938 7.2 
" style="fill: none; stroke: #000000; stroke-width: 0.8; stroke-linejoin: miter; stroke-linecap: square"/>
   </g>
   <g id="text_37">
    <!-- (b)：n=5,N=80,mp=0.05,cp=0.6 -->
    <g transform="translate(573.209063 280.2165) scale(0.12 -0.12)">
     <defs>
      <path id="MicrosoftYaHei-62" d="M 1159 488 
L 1159 0 
L 547 0 
L 547 5116 
L 1159 5116 
L 1159 2859 
L 1172 2859 
Q 1578 3538 2359 3538 
Q 3009 3538 3392 3080 
Q 3775 2622 3775 1828 
Q 3775 953 3345 436 
Q 2916 -81 2200 -81 
Q 1525 -81 1172 488 
L 1159 488 
z
M 1156 1422 
Q 1156 1003 1428 714 
Q 1700 425 2109 425 
Q 2597 425 2872 800 
Q 3147 1175 3147 1838 
Q 3147 2384 2890 2707 
Q 2634 3031 2191 3031 
Q 1741 3031 1448 2709 
Q 1156 2388 1156 1891 
L 1156 1422 
z
" transform="scale(0.015625)"/>
     </defs>
     <use xlink:href="#MicrosoftYaHei-28"/>
     <use xlink:href="#MicrosoftYaHei-62" transform="translate(33.398438 0)"/>
     <use xlink:href="#MicrosoftYaHei-29" transform="translate(97.265625 0)"/>
     <use xlink:href="#MicrosoftYaHei-ff1a" transform="translate(130.664062 0)"/>
     <use xlink:href="#MicrosoftYaHei-6e" transform="translate(230.664062 0)"/>
     <use xlink:href="#MicrosoftYaHei-3d" transform="translate(292.285156 0)"/>
     <use xlink:href="#MicrosoftYaHei-35" transform="translate(366.455078 0)"/>
     <use xlink:href="#MicrosoftYaHei-2c" transform="translate(425.097656 0)"/>
     <use xlink:href="#MicrosoftYaHei-4e" transform="translate(449.169922 0)"/>
     <use xlink:href="#MicrosoftYaHei-3d" transform="translate(530.46875 0)"/>
     <use xlink:href="#MicrosoftYaHei-38" transform="translate(604.638672 0)"/>
     <use xlink:href="#MicrosoftYaHei-30" transform="translate(663.28125 0)"/>
     <use xlink:href="#MicrosoftYaHei-2c" transform="translate(721.923828 0)"/>
     <use xlink:href="#MicrosoftYaHei-6d" transform="translate(745.996094 0)"/>
     <use xlink:href="#MicrosoftYaHei-70" transform="translate(839.697266 0)"/>
     <use xlink:href="#MicrosoftYaHei-3d" transform="translate(903.564453 0)"/>
     <use xlink:href="#MicrosoftYaHei-30" transform="translate(977.734375 0)"/>
     <use xlink:href="#MicrosoftYaHei-2e" transform="translate(1036.376953 0)"/>
     <use xlink:href="#MicrosoftYaHei-30" transform="translate(1060.449219 0)"/>
     <use xlink:href="#MicrosoftYaHei-35" transform="translate(1119.091797 0)"/>
     <use xlink:href="#MicrosoftYaHei-2c" transform="translate(1177.734375 0)"/>
     <use xlink:href="#MicrosoftYaHei-63" transform="translate(1201.806641 0)"/>
     <use xlink:href="#MicrosoftYaHei-70" transform="translate(1251.953125 0)"/>
     <use xlink:href="#MicrosoftYaHei-3d" transform="translate(1315.820312 0)"/>
     <use xlink:href="#MicrosoftYaHei-30" transform="translate(1389.990234 0)"/>
     <use xlink:href="#MicrosoftYaHei-2e" transform="translate(1448.632812 0)"/>
     <use xlink:href="#MicrosoftYaHei-36" transform="translate(1472.705078 0)"/>
    </g>
   </g>
   <g id="legend_2">
    <g id="patch_13">
     <path d="M 837.525938 20.2 
L 841.525938 20.2 
Q 843.525938 20.2 843.525938 18.2 
L 843.525938 14.2 
Q 843.525938 12.2 841.525938 12.2 
L 837.525938 12.2 
Q 835.525938 12.2 835.525938 14.2 
L 835.525938 18.2 
Q 835.525938 20.2 837.525938 20.2 
z
" style="fill: #ffffff; opacity: 0.8; stroke: #cccccc; stroke-linejoin: miter"/>
    </g>
   </g>
  </g>
  <g id="axes_3">
   <g id="patch_14">
    <path d="M 52.135938 514.32 
L 419.000938 514.32 
L 419.000938 289.8 
L 52.135938 289.8 
z
" style="fill: #ffffff"/>
   </g>
   <g id="matplotlib.axis_5">
    <g id="xtick_16">
     <g id="line2d_34">
      <g>
       <use xlink:href="#mc1b9737fca" x="68.811619" y="514.32" style="stroke: #000000; stroke-width: 0.8"/>
      </g>
     </g>
     <g id="text_38">
      <!-- 0 -->
      <g transform="translate(65.879588 529.31375) scale(0.1 -0.1)">
       <use xlink:href="#MicrosoftYaHei-30"/>
      </g>
     </g>
    </g>
    <g id="xtick_17">
     <g id="line2d_35">
      <g>
       <use xlink:href="#mc1b9737fca" x="122.778227" y="514.32" style="stroke: #000000; stroke-width: 0.8"/>
      </g>
     </g>
     <g id="text_39">
      <!-- 50 -->
      <g transform="translate(116.914165 529.31375) scale(0.1 -0.1)">
       <use xlink:href="#MicrosoftYaHei-35"/>
       <use xlink:href="#MicrosoftYaHei-30" transform="translate(58.642578 0)"/>
      </g>
     </g>
    </g>
    <g id="xtick_18">
     <g id="line2d_36">
      <g>
       <use xlink:href="#mc1b9737fca" x="176.744835" y="514.32" style="stroke: #000000; stroke-width: 0.8"/>
      </g>
     </g>
     <g id="text_40">
      <!-- 100 -->
      <g transform="translate(167.948741 529.31375) scale(0.1 -0.1)">
       <use xlink:href="#MicrosoftYaHei-31"/>
       <use xlink:href="#MicrosoftYaHei-30" transform="translate(58.642578 0)"/>
       <use xlink:href="#MicrosoftYaHei-30" transform="translate(117.285156 0)"/>
      </g>
     </g>
    </g>
    <g id="xtick_19">
     <g id="line2d_37">
      <g>
       <use xlink:href="#mc1b9737fca" x="230.711443" y="514.32" style="stroke: #000000; stroke-width: 0.8"/>
      </g>
     </g>
     <g id="text_41">
      <!-- 150 -->
      <g transform="translate(221.915349 529.31375) scale(0.1 -0.1)">
       <use xlink:href="#MicrosoftYaHei-31"/>
       <use xlink:href="#MicrosoftYaHei-35" transform="translate(58.642578 0)"/>
       <use xlink:href="#MicrosoftYaHei-30" transform="translate(117.285156 0)"/>
      </g>
     </g>
    </g>
    <g id="xtick_20">
     <g id="line2d_38">
      <g>
       <use xlink:href="#mc1b9737fca" x="284.678051" y="514.32" style="stroke: #000000; stroke-width: 0.8"/>
      </g>
     </g>
     <g id="text_42">
      <!-- 200 -->
      <g transform="translate(275.881957 529.31375) scale(0.1 -0.1)">
       <use xlink:href="#MicrosoftYaHei-32"/>
       <use xlink:href="#MicrosoftYaHei-30" transform="translate(58.642578 0)"/>
       <use xlink:href="#MicrosoftYaHei-30" transform="translate(117.285156 0)"/>
      </g>
     </g>
    </g>
    <g id="xtick_21">
     <g id="line2d_39">
      <g>
       <use xlink:href="#mc1b9737fca" x="338.644658" y="514.32" style="stroke: #000000; stroke-width: 0.8"/>
      </g>
     </g>
     <g id="text_43">
      <!-- 250 -->
      <g transform="translate(329.848565 529.31375) scale(0.1 -0.1)">
       <use xlink:href="#MicrosoftYaHei-32"/>
       <use xlink:href="#MicrosoftYaHei-35" transform="translate(58.642578 0)"/>
       <use xlink:href="#MicrosoftYaHei-30" transform="translate(117.285156 0)"/>
      </g>
     </g>
    </g>
    <g id="xtick_22">
     <g id="line2d_40">
      <g>
       <use xlink:href="#mc1b9737fca" x="392.611266" y="514.32" style="stroke: #000000; stroke-width: 0.8"/>
      </g>
     </g>
     <g id="text_44">
      <!-- 300 -->
      <g transform="translate(383.815173 529.31375) scale(0.1 -0.1)">
       <use xlink:href="#MicrosoftYaHei-33"/>
       <use xlink:href="#MicrosoftYaHei-30" transform="translate(58.642578 0)"/>
       <use xlink:href="#MicrosoftYaHei-30" transform="translate(117.285156 0)"/>
      </g>
     </g>
    </g>
    <g id="text_45">
     <!-- 迭代次数 -->
     <g transform="translate(215.568438 543.793437) scale(0.1 -0.1)">
      <use xlink:href="#MicrosoftYaHei-8fed"/>
      <use xlink:href="#MicrosoftYaHei-4ee3" transform="translate(100 0)"/>
      <use xlink:href="#MicrosoftYaHei-6b21" transform="translate(200 0)"/>
      <use xlink:href="#MicrosoftYaHei-6570" transform="translate(300 0)"/>
     </g>
    </g>
   </g>
   <g id="matplotlib.axis_6">
    <g id="ytick_17">
     <g id="line2d_41">
      <g>
       <use xlink:href="#m75d4213149" x="52.135938" y="499.43246" style="stroke: #000000; stroke-width: 0.8"/>
      </g>
     </g>
     <g id="text_46">
      <!-- 5000 -->
      <g transform="translate(21.679688 503.429335) scale(0.1 -0.1)">
       <use xlink:href="#MicrosoftYaHei-35"/>
       <use xlink:href="#MicrosoftYaHei-30" transform="translate(58.642578 0)"/>
       <use xlink:href="#MicrosoftYaHei-30" transform="translate(117.285156 0)"/>
       <use xlink:href="#MicrosoftYaHei-30" transform="translate(175.927734 0)"/>
      </g>
     </g>
    </g>
    <g id="ytick_18">
     <g id="line2d_42">
      <g>
       <use xlink:href="#m75d4213149" x="52.135938" y="466.476526" style="stroke: #000000; stroke-width: 0.8"/>
      </g>
     </g>
     <g id="text_47">
      <!-- 5500 -->
      <g transform="translate(21.679688 470.473401) scale(0.1 -0.1)">
       <use xlink:href="#MicrosoftYaHei-35"/>
       <use xlink:href="#MicrosoftYaHei-35" transform="translate(58.642578 0)"/>
       <use xlink:href="#MicrosoftYaHei-30" transform="translate(117.285156 0)"/>
       <use xlink:href="#MicrosoftYaHei-30" transform="translate(175.927734 0)"/>
      </g>
     </g>
    </g>
    <g id="ytick_19">
     <g id="line2d_43">
      <g>
       <use xlink:href="#m75d4213149" x="52.135938" y="433.520593" style="stroke: #000000; stroke-width: 0.8"/>
      </g>
     </g>
     <g id="text_48">
      <!-- 6000 -->
      <g transform="translate(21.679688 437.517468) scale(0.1 -0.1)">
       <use xlink:href="#MicrosoftYaHei-36"/>
       <use xlink:href="#MicrosoftYaHei-30" transform="translate(58.642578 0)"/>
       <use xlink:href="#MicrosoftYaHei-30" transform="translate(117.285156 0)"/>
       <use xlink:href="#MicrosoftYaHei-30" transform="translate(175.927734 0)"/>
      </g>
     </g>
    </g>
    <g id="ytick_20">
     <g id="line2d_44">
      <g>
       <use xlink:href="#m75d4213149" x="52.135938" y="400.56466" style="stroke: #000000; stroke-width: 0.8"/>
      </g>
     </g>
     <g id="text_49">
      <!-- 6500 -->
      <g transform="translate(21.679688 404.561535) scale(0.1 -0.1)">
       <use xlink:href="#MicrosoftYaHei-36"/>
       <use xlink:href="#MicrosoftYaHei-35" transform="translate(58.642578 0)"/>
       <use xlink:href="#MicrosoftYaHei-30" transform="translate(117.285156 0)"/>
       <use xlink:href="#MicrosoftYaHei-30" transform="translate(175.927734 0)"/>
      </g>
     </g>
    </g>
    <g id="ytick_21">
     <g id="line2d_45">
      <g>
       <use xlink:href="#m75d4213149" x="52.135938" y="367.608726" style="stroke: #000000; stroke-width: 0.8"/>
      </g>
     </g>
     <g id="text_50">
      <!-- 7000 -->
      <g transform="translate(21.679688 371.605601) scale(0.1 -0.1)">
       <defs>
        <path id="MicrosoftYaHei-37" d="M 3422 4463 
Q 2659 3131 2223 1998 
Q 1788 866 1684 0 
L 1047 0 
Q 1163 853 1594 1947 
Q 2025 3041 2747 4300 
L 347 4300 
L 347 4841 
L 3422 4841 
L 3422 4463 
z
" transform="scale(0.015625)"/>
       </defs>
       <use xlink:href="#MicrosoftYaHei-37"/>
       <use xlink:href="#MicrosoftYaHei-30" transform="translate(58.642578 0)"/>
       <use xlink:href="#MicrosoftYaHei-30" transform="translate(117.285156 0)"/>
       <use xlink:href="#MicrosoftYaHei-30" transform="translate(175.927734 0)"/>
      </g>
     </g>
    </g>
    <g id="ytick_22">
     <g id="line2d_46">
      <g>
       <use xlink:href="#m75d4213149" x="52.135938" y="334.652793" style="stroke: #000000; stroke-width: 0.8"/>
      </g>
     </g>
     <g id="text_51">
      <!-- 7500 -->
      <g transform="translate(21.679688 338.649668) scale(0.1 -0.1)">
       <use xlink:href="#MicrosoftYaHei-37"/>
       <use xlink:href="#MicrosoftYaHei-35" transform="translate(58.642578 0)"/>
       <use xlink:href="#MicrosoftYaHei-30" transform="translate(117.285156 0)"/>
       <use xlink:href="#MicrosoftYaHei-30" transform="translate(175.927734 0)"/>
      </g>
     </g>
    </g>
    <g id="ytick_23">
     <g id="line2d_47">
      <g>
       <use xlink:href="#m75d4213149" x="52.135938" y="301.69686" style="stroke: #000000; stroke-width: 0.8"/>
      </g>
     </g>
     <g id="text_52">
      <!-- 8000 -->
      <g transform="translate(21.679688 305.693735) scale(0.1 -0.1)">
       <use xlink:href="#MicrosoftYaHei-38"/>
       <use xlink:href="#MicrosoftYaHei-30" transform="translate(58.642578 0)"/>
       <use xlink:href="#MicrosoftYaHei-30" transform="translate(117.285156 0)"/>
       <use xlink:href="#MicrosoftYaHei-30" transform="translate(175.927734 0)"/>
      </g>
     </g>
    </g>
    <g id="text_53">
     <!-- 适应度(Fitness) -->
     <g transform="translate(15.19375 436.7975) rotate(-90) scale(0.1 -0.1)">
      <use xlink:href="#MicrosoftYaHei-9002"/>
      <use xlink:href="#MicrosoftYaHei-5e94" transform="translate(100 0)"/>
      <use xlink:href="#MicrosoftYaHei-5ea6" transform="translate(200 0)"/>
      <use xlink:href="#MicrosoftYaHei-28" transform="translate(300 0)"/>
      <use xlink:href="#MicrosoftYaHei-46" transform="translate(333.398438 0)"/>
      <use xlink:href="#MicrosoftYaHei-69" transform="translate(386.523438 0)"/>
      <use xlink:href="#MicrosoftYaHei-74" transform="translate(413.134766 0)"/>
      <use xlink:href="#MicrosoftYaHei-6e" transform="translate(450.390625 0)"/>
      <use xlink:href="#MicrosoftYaHei-65" transform="translate(512.011719 0)"/>
      <use xlink:href="#MicrosoftYaHei-73" transform="translate(568.75 0)"/>
      <use xlink:href="#MicrosoftYaHei-73" transform="translate(615.039062 0)"/>
      <use xlink:href="#MicrosoftYaHei-29" transform="translate(661.328125 0)"/>
     </g>
    </g>
   </g>
   <g id="line2d_48">
    <path d="M 68.811619 300.005455 
L 69.890951 348.239381 
L 70.970284 380.700731 
L 72.049616 386.419775 
L 73.128948 389.43734 
L 74.20828 390.675315 
L 75.287612 393.565303 
L 76.366944 399.919052 
L 77.446277 399.919052 
L 78.525609 409.384266 
L 79.604941 411.927639 
L 80.684273 419.562137 
L 81.763605 422.0228 
L 82.842937 426.364027 
L 83.92227 427.064014 
L 85.001602 432.979851 
L 86.080934 435.424932 
L 87.160266 435.424932 
L 88.239598 437.662905 
L 89.31893 438.426266 
L 91.477595 438.426266 
L 92.556927 440.10821 
L 93.636259 440.10821 
L 94.715591 441.858333 
L 96.874255 441.858333 
L 97.953588 449.880128 
L 99.03292 449.880128 
L 100.112252 452.505831 
L 102.270916 452.505831 
L 103.350248 455.150617 
L 105.508913 455.150617 
L 106.588245 455.272317 
L 107.667577 455.8089 
L 108.746909 457.060442 
L 109.826241 457.060442 
L 110.905573 458.237231 
L 111.984906 458.349339 
L 115.222902 458.349339 
L 116.302234 459.654579 
L 117.381566 459.654579 
L 118.460899 465.47025 
L 123.857559 465.527875 
L 124.936891 467.298605 
L 127.095556 467.298605 
L 128.174888 469.325142 
L 130.333552 469.325142 
L 132.492217 470.099788 
L 143.285538 470.099788 
L 144.36487 470.284567 
L 152.999528 470.389748 
L 154.07886 471.500996 
L 158.396188 471.500996 
L 159.47552 472.088412 
L 164.872181 472.088412 
L 165.951513 474.263521 
L 167.030846 474.263521 
L 168.110178 475.386545 
L 169.18951 475.386545 
L 170.268842 475.932729 
L 171.348174 475.932729 
L 172.427506 478.6287 
L 174.586171 478.6287 
L 175.665503 479.907318 
L 176.744835 479.907318 
L 178.903499 482.849115 
L 181.062164 482.849115 
L 182.141496 483.619007 
L 183.220828 483.619007 
L 184.30016 484.157478 
L 191.855485 484.157478 
L 192.934817 484.448261 
L 196.172814 484.448261 
L 197.252146 485.652172 
L 198.331478 485.652172 
L 199.41081 486.43757 
L 202.648807 486.448422 
L 203.728139 486.563055 
L 204.807471 487.750151 
L 206.966135 487.750151 
L 208.045468 488.719315 
L 209.1248 490.270864 
L 214.52146 490.270864 
L 215.600793 491.042356 
L 216.680125 493.501729 
L 220.997453 493.501729 
L 222.076786 494.113202 
L 228.552778 494.113202 
L 229.632111 497.139651 
L 232.870107 497.139651 
L 233.949439 497.605057 
L 235.028771 497.605057 
L 236.108104 498.027639 
L 263.091407 498.125676 
L 264.17074 499.136184 
L 265.250072 499.31038 
L 274.964061 499.31038 
L 276.043393 501.308397 
L 285.757383 501.308397 
L 286.836715 502.095532 
L 296.550704 502.095532 
L 297.630036 503.160392 
L 301.947365 503.160392 
L 303.026697 503.856442 
L 380.738613 503.941968 
L 381.817945 504.114545 
L 402.325256 504.114545 
L 402.325256 504.114545 
" clip-path="url(#pc99849746d)" style="fill: none; stroke: #005baa; stroke-width: 1.5; stroke-linecap: square"/>
   </g>
   <g id="patch_15">
    <path d="M 52.135938 514.32 
L 52.135938 289.8 
" style="fill: none; stroke: #000000; stroke-width: 0.8; stroke-linejoin: miter; stroke-linecap: square"/>
   </g>
   <g id="patch_16">
    <path d="M 419.000938 514.32 
L 419.000938 289.8 
" style="fill: none; stroke: #000000; stroke-width: 0.8; stroke-linejoin: miter; stroke-linecap: square"/>
   </g>
   <g id="patch_17">
    <path d="M 52.135938 514.32 
L 419.000938 514.32 
" style="fill: none; stroke: #000000; stroke-width: 0.8; stroke-linejoin: miter; stroke-linecap: square"/>
   </g>
   <g id="patch_18">
    <path d="M 52.135938 289.8 
L 419.000938 289.8 
" style="fill: none; stroke: #000000; stroke-width: 0.8; stroke-linejoin: miter; stroke-linecap: square"/>
   </g>
   <g id="text_54">
    <!-- (c)：n=8,N=50,mp=0.05,cp=0.6 -->
    <g transform="translate(144.508125 562.8165) scale(0.12 -0.12)">
     <use xlink:href="#MicrosoftYaHei-28"/>
     <use xlink:href="#MicrosoftYaHei-63" transform="translate(33.398438 0)"/>
     <use xlink:href="#MicrosoftYaHei-29" transform="translate(83.544922 0)"/>
     <use xlink:href="#MicrosoftYaHei-ff1a" transform="translate(116.943359 0)"/>
     <use xlink:href="#MicrosoftYaHei-6e" transform="translate(216.943359 0)"/>
     <use xlink:href="#MicrosoftYaHei-3d" transform="translate(278.564453 0)"/>
     <use xlink:href="#MicrosoftYaHei-38" transform="translate(352.734375 0)"/>
     <use xlink:href="#MicrosoftYaHei-2c" transform="translate(411.376953 0)"/>
     <use xlink:href="#MicrosoftYaHei-4e" transform="translate(435.449219 0)"/>
     <use xlink:href="#MicrosoftYaHei-3d" transform="translate(516.748047 0)"/>
     <use xlink:href="#MicrosoftYaHei-35" transform="translate(590.917969 0)"/>
     <use xlink:href="#MicrosoftYaHei-30" transform="translate(649.560547 0)"/>
     <use xlink:href="#MicrosoftYaHei-2c" transform="translate(708.203125 0)"/>
     <use xlink:href="#MicrosoftYaHei-6d" transform="translate(732.275391 0)"/>
     <use xlink:href="#MicrosoftYaHei-70" transform="translate(825.976562 0)"/>
     <use xlink:href="#MicrosoftYaHei-3d" transform="translate(889.84375 0)"/>
     <use xlink:href="#MicrosoftYaHei-30" transform="translate(964.013672 0)"/>
     <use xlink:href="#MicrosoftYaHei-2e" transform="translate(1022.65625 0)"/>
     <use xlink:href="#MicrosoftYaHei-30" transform="translate(1046.728516 0)"/>
     <use xlink:href="#MicrosoftYaHei-35" transform="translate(1105.371094 0)"/>
     <use xlink:href="#MicrosoftYaHei-2c" transform="translate(1164.013672 0)"/>
     <use xlink:href="#MicrosoftYaHei-63" transform="translate(1188.085938 0)"/>
     <use xlink:href="#MicrosoftYaHei-70" transform="translate(1238.232422 0)"/>
     <use xlink:href="#MicrosoftYaHei-3d" transform="translate(1302.099609 0)"/>
     <use xlink:href="#MicrosoftYaHei-30" transform="translate(1376.269531 0)"/>
     <use xlink:href="#MicrosoftYaHei-2e" transform="translate(1434.912109 0)"/>
     <use xlink:href="#MicrosoftYaHei-36" transform="translate(1458.984375 0)"/>
    </g>
   </g>
   <g id="legend_3">
    <g id="patch_19">
     <path d="M 408.000938 302.8 
L 412.000938 302.8 
Q 414.000938 302.8 414.000938 300.8 
L 414.000938 296.8 
Q 414.000938 294.8 412.000938 294.8 
L 408.000938 294.8 
Q 406.000938 294.8 406.000938 296.8 
L 406.000938 300.8 
Q 406.000938 302.8 408.000938 302.8 
z
" style="fill: #ffffff; opacity: 0.8; stroke: #cccccc; stroke-linejoin: miter"/>
    </g>
   </g>
  </g>
  <g id="axes_4">
   <g id="patch_20">
    <path d="M 481.660938 514.32 
L 848.525938 514.32 
L 848.525938 289.8 
L 481.660938 289.8 
z
" style="fill: #ffffff"/>
   </g>
   <g id="matplotlib.axis_7">
    <g id="xtick_23">
     <g id="line2d_49">
      <g>
       <use xlink:href="#mc1b9737fca" x="498.336619" y="514.32" style="stroke: #000000; stroke-width: 0.8"/>
      </g>
     </g>
     <g id="text_55">
      <!-- 0 -->
      <g transform="translate(495.404588 529.31375) scale(0.1 -0.1)">
       <use xlink:href="#MicrosoftYaHei-30"/>
      </g>
     </g>
    </g>
    <g id="xtick_24">
     <g id="line2d_50">
      <g>
       <use xlink:href="#mc1b9737fca" x="563.222541" y="514.32" style="stroke: #000000; stroke-width: 0.8"/>
      </g>
     </g>
     <g id="text_56">
      <!-- 50 -->
      <g transform="translate(557.358478 529.31375) scale(0.1 -0.1)">
       <use xlink:href="#MicrosoftYaHei-35"/>
       <use xlink:href="#MicrosoftYaHei-30" transform="translate(58.642578 0)"/>
      </g>
     </g>
    </g>
    <g id="xtick_25">
     <g id="line2d_51">
      <g>
       <use xlink:href="#mc1b9737fca" x="628.108462" y="514.32" style="stroke: #000000; stroke-width: 0.8"/>
      </g>
     </g>
     <g id="text_57">
      <!-- 100 -->
      <g transform="translate(619.312369 529.31375) scale(0.1 -0.1)">
       <use xlink:href="#MicrosoftYaHei-31"/>
       <use xlink:href="#MicrosoftYaHei-30" transform="translate(58.642578 0)"/>
       <use xlink:href="#MicrosoftYaHei-30" transform="translate(117.285156 0)"/>
      </g>
     </g>
    </g>
    <g id="xtick_26">
     <g id="line2d_52">
      <g>
       <use xlink:href="#mc1b9737fca" x="692.994384" y="514.32" style="stroke: #000000; stroke-width: 0.8"/>
      </g>
     </g>
     <g id="text_58">
      <!-- 150 -->
      <g transform="translate(684.19829 529.31375) scale(0.1 -0.1)">
       <use xlink:href="#MicrosoftYaHei-31"/>
       <use xlink:href="#MicrosoftYaHei-35" transform="translate(58.642578 0)"/>
       <use xlink:href="#MicrosoftYaHei-30" transform="translate(117.285156 0)"/>
      </g>
     </g>
    </g>
    <g id="xtick_27">
     <g id="line2d_53">
      <g>
       <use xlink:href="#mc1b9737fca" x="757.880305" y="514.32" style="stroke: #000000; stroke-width: 0.8"/>
      </g>
     </g>
     <g id="text_59">
      <!-- 200 -->
      <g transform="translate(749.084211 529.31375) scale(0.1 -0.1)">
       <use xlink:href="#MicrosoftYaHei-32"/>
       <use xlink:href="#MicrosoftYaHei-30" transform="translate(58.642578 0)"/>
       <use xlink:href="#MicrosoftYaHei-30" transform="translate(117.285156 0)"/>
      </g>
     </g>
    </g>
    <g id="xtick_28">
     <g id="line2d_54">
      <g>
       <use xlink:href="#mc1b9737fca" x="822.766227" y="514.32" style="stroke: #000000; stroke-width: 0.8"/>
      </g>
     </g>
     <g id="text_60">
      <!-- 250 -->
      <g transform="translate(813.970133 529.31375) scale(0.1 -0.1)">
       <use xlink:href="#MicrosoftYaHei-32"/>
       <use xlink:href="#MicrosoftYaHei-35" transform="translate(58.642578 0)"/>
       <use xlink:href="#MicrosoftYaHei-30" transform="translate(117.285156 0)"/>
      </g>
     </g>
    </g>
   </g>
   <g id="matplotlib.axis_8">
    <g id="ytick_24">
     <g id="line2d_55">
      <g>
       <use xlink:href="#m75d4213149" x="481.660938" y="508.851269" style="stroke: #000000; stroke-width: 0.8"/>
      </g>
     </g>
     <g id="text_61">
      <!-- 6000 -->
      <g transform="translate(451.204688 512.848144) scale(0.1 -0.1)">
       <use xlink:href="#MicrosoftYaHei-36"/>
       <use xlink:href="#MicrosoftYaHei-30" transform="translate(58.642578 0)"/>
       <use xlink:href="#MicrosoftYaHei-30" transform="translate(117.285156 0)"/>
       <use xlink:href="#MicrosoftYaHei-30" transform="translate(175.927734 0)"/>
      </g>
     </g>
    </g>
    <g id="ytick_25">
     <g id="line2d_56">
      <g>
       <use xlink:href="#m75d4213149" x="481.660938" y="482.988481" style="stroke: #000000; stroke-width: 0.8"/>
      </g>
     </g>
     <g id="text_62">
      <!-- 6500 -->
      <g transform="translate(451.204688 486.985356) scale(0.1 -0.1)">
       <use xlink:href="#MicrosoftYaHei-36"/>
       <use xlink:href="#MicrosoftYaHei-35" transform="translate(58.642578 0)"/>
       <use xlink:href="#MicrosoftYaHei-30" transform="translate(117.285156 0)"/>
       <use xlink:href="#MicrosoftYaHei-30" transform="translate(175.927734 0)"/>
      </g>
     </g>
    </g>
    <g id="ytick_26">
     <g id="line2d_57">
      <g>
       <use xlink:href="#m75d4213149" x="481.660938" y="457.125692" style="stroke: #000000; stroke-width: 0.8"/>
      </g>
     </g>
     <g id="text_63">
      <!-- 7000 -->
      <g transform="translate(451.204688 461.122567) scale(0.1 -0.1)">
       <use xlink:href="#MicrosoftYaHei-37"/>
       <use xlink:href="#MicrosoftYaHei-30" transform="translate(58.642578 0)"/>
       <use xlink:href="#MicrosoftYaHei-30" transform="translate(117.285156 0)"/>
       <use xlink:href="#MicrosoftYaHei-30" transform="translate(175.927734 0)"/>
      </g>
     </g>
    </g>
    <g id="ytick_27">
     <g id="line2d_58">
      <g>
       <use xlink:href="#m75d4213149" x="481.660938" y="431.262903" style="stroke: #000000; stroke-width: 0.8"/>
      </g>
     </g>
     <g id="text_64">
      <!-- 7500 -->
      <g transform="translate(451.204688 435.259778) scale(0.1 -0.1)">
       <use xlink:href="#MicrosoftYaHei-37"/>
       <use xlink:href="#MicrosoftYaHei-35" transform="translate(58.642578 0)"/>
       <use xlink:href="#MicrosoftYaHei-30" transform="translate(117.285156 0)"/>
       <use xlink:href="#MicrosoftYaHei-30" transform="translate(175.927734 0)"/>
      </g>
     </g>
    </g>
    <g id="ytick_28">
     <g id="line2d_59">
      <g>
       <use xlink:href="#m75d4213149" x="481.660938" y="405.400114" style="stroke: #000000; stroke-width: 0.8"/>
      </g>
     </g>
     <g id="text_65">
      <!-- 8000 -->
      <g transform="translate(451.204688 409.396989) scale(0.1 -0.1)">
       <use xlink:href="#MicrosoftYaHei-38"/>
       <use xlink:href="#MicrosoftYaHei-30" transform="translate(58.642578 0)"/>
       <use xlink:href="#MicrosoftYaHei-30" transform="translate(117.285156 0)"/>
       <use xlink:href="#MicrosoftYaHei-30" transform="translate(175.927734 0)"/>
      </g>
     </g>
    </g>
    <g id="ytick_29">
     <g id="line2d_60">
      <g>
       <use xlink:href="#m75d4213149" x="481.660938" y="379.537325" style="stroke: #000000; stroke-width: 0.8"/>
      </g>
     </g>
     <g id="text_66">
      <!-- 8500 -->
      <g transform="translate(451.204688 383.5342) scale(0.1 -0.1)">
       <use xlink:href="#MicrosoftYaHei-38"/>
       <use xlink:href="#MicrosoftYaHei-35" transform="translate(58.642578 0)"/>
       <use xlink:href="#MicrosoftYaHei-30" transform="translate(117.285156 0)"/>
       <use xlink:href="#MicrosoftYaHei-30" transform="translate(175.927734 0)"/>
      </g>
     </g>
    </g>
    <g id="ytick_30">
     <g id="line2d_61">
      <g>
       <use xlink:href="#m75d4213149" x="481.660938" y="353.674536" style="stroke: #000000; stroke-width: 0.8"/>
      </g>
     </g>
     <g id="text_67">
      <!-- 9000 -->
      <g transform="translate(451.204688 357.671411) scale(0.1 -0.1)">
       <use xlink:href="#MicrosoftYaHei-39"/>
       <use xlink:href="#MicrosoftYaHei-30" transform="translate(58.642578 0)"/>
       <use xlink:href="#MicrosoftYaHei-30" transform="translate(117.285156 0)"/>
       <use xlink:href="#MicrosoftYaHei-30" transform="translate(175.927734 0)"/>
      </g>
     </g>
    </g>
    <g id="ytick_31">
     <g id="line2d_62">
      <g>
       <use xlink:href="#m75d4213149" x="481.660938" y="327.811747" style="stroke: #000000; stroke-width: 0.8"/>
      </g>
     </g>
     <g id="text_68">
      <!-- 9500 -->
      <g transform="translate(451.204688 331.808622) scale(0.1 -0.1)">
       <use xlink:href="#MicrosoftYaHei-39"/>
       <use xlink:href="#MicrosoftYaHei-35" transform="translate(58.642578 0)"/>
       <use xlink:href="#MicrosoftYaHei-30" transform="translate(117.285156 0)"/>
       <use xlink:href="#MicrosoftYaHei-30" transform="translate(175.927734 0)"/>
      </g>
     </g>
    </g>
    <g id="ytick_32">
     <g id="line2d_63">
      <g>
       <use xlink:href="#m75d4213149" x="481.660938" y="301.948958" style="stroke: #000000; stroke-width: 0.8"/>
      </g>
     </g>
     <g id="text_69">
      <!-- 10000 -->
      <g transform="translate(445.340625 305.945833) scale(0.1 -0.1)">
       <use xlink:href="#MicrosoftYaHei-31"/>
       <use xlink:href="#MicrosoftYaHei-30" transform="translate(58.642578 0)"/>
       <use xlink:href="#MicrosoftYaHei-30" transform="translate(117.285156 0)"/>
       <use xlink:href="#MicrosoftYaHei-30" transform="translate(175.927734 0)"/>
       <use xlink:href="#MicrosoftYaHei-30" transform="translate(234.570312 0)"/>
      </g>
     </g>
    </g>
    <g id="text_70">
     <!-- 适应度(Fitness) -->
     <g transform="translate(438.854688 436.7975) rotate(-90) scale(0.1 -0.1)">
      <use xlink:href="#MicrosoftYaHei-9002"/>
      <use xlink:href="#MicrosoftYaHei-5e94" transform="translate(100 0)"/>
      <use xlink:href="#MicrosoftYaHei-5ea6" transform="translate(200 0)"/>
      <use xlink:href="#MicrosoftYaHei-28" transform="translate(300 0)"/>
      <use xlink:href="#MicrosoftYaHei-46" transform="translate(333.398438 0)"/>
      <use xlink:href="#MicrosoftYaHei-69" transform="translate(386.523438 0)"/>
      <use xlink:href="#MicrosoftYaHei-74" transform="translate(413.134766 0)"/>
      <use xlink:href="#MicrosoftYaHei-6e" transform="translate(450.390625 0)"/>
      <use xlink:href="#MicrosoftYaHei-65" transform="translate(512.011719 0)"/>
      <use xlink:href="#MicrosoftYaHei-73" transform="translate(568.75 0)"/>
      <use xlink:href="#MicrosoftYaHei-73" transform="translate(615.039062 0)"/>
      <use xlink:href="#MicrosoftYaHei-29" transform="translate(661.328125 0)"/>
     </g>
    </g>
   </g>
   <g id="line2d_64">
    <path d="M 498.336619 300.005455 
L 499.634338 325.195185 
L 500.932056 371.42505 
L 502.229775 399.477567 
L 503.527493 441.99786 
L 504.825211 443.623222 
L 506.12293 459.340946 
L 507.420648 462.063163 
L 510.016085 469.766266 
L 511.313804 471.899887 
L 512.611522 472.195581 
L 513.90924 472.781368 
L 515.206959 474.333996 
L 516.504677 475.599968 
L 517.802396 477.064777 
L 519.100114 477.132038 
L 520.397833 477.456463 
L 521.695551 477.906569 
L 522.993269 477.906569 
L 524.290988 478.43301 
L 525.588706 478.43301 
L 526.886425 479.364749 
L 528.184143 479.364749 
L 529.481862 480.341442 
L 530.77958 481.487607 
L 534.672735 481.487607 
L 535.970454 481.9458 
L 537.268172 481.9458 
L 538.565891 483.583717 
L 539.863609 483.925346 
L 541.161327 483.925346 
L 542.459046 485.103598 
L 547.64992 485.103598 
L 548.947638 486.607995 
L 550.245356 487.138346 
L 551.543075 487.138346 
L 552.840793 487.787379 
L 558.031667 487.787379 
L 559.329386 488.001911 
L 560.627104 488.001911 
L 561.924822 488.856409 
L 563.222541 489.410329 
L 565.817978 489.410329 
L 567.115696 491.091927 
L 568.413415 491.43534 
L 569.711133 491.929586 
L 571.008851 491.929586 
L 572.30657 492.549222 
L 573.604288 494.246417 
L 574.902007 494.372947 
L 578.795162 494.372947 
L 580.09288 495.731031 
L 596.96322 495.759762 
L 598.260938 496.012891 
L 599.558657 496.543846 
L 620.322152 496.559174 
L 621.61987 497.138765 
L 624.215307 497.138765 
L 625.513025 497.306106 
L 648.871957 497.366295 
L 651.467394 497.423448 
L 664.444578 497.423448 
L 665.742297 499.207834 
L 674.826326 499.207834 
L 676.124044 499.401296 
L 683.910355 499.401296 
L 685.208073 499.923382 
L 691.696665 499.923382 
L 694.292102 500.203706 
L 699.482976 500.203706 
L 700.780694 501.39041 
L 702.078413 501.648907 
L 730.628218 501.648907 
L 731.925937 502.291413 
L 738.414529 502.291413 
L 739.712247 502.419124 
L 750.093995 502.419124 
L 751.391713 503.435899 
L 817.575353 503.525899 
L 818.873071 504.114545 
L 831.850256 504.114545 
L 831.850256 504.114545 
" clip-path="url(#p08f951d833)" style="fill: none; stroke: #005baa; stroke-width: 1.5; stroke-linecap: square"/>
   </g>
   <g id="patch_21">
    <path d="M 481.660938 514.32 
L 481.660938 289.8 
" style="fill: none; stroke: #000000; stroke-width: 0.8; stroke-linejoin: miter; stroke-linecap: square"/>
   </g>
   <g id="patch_22">
    <path d="M 848.525938 514.32 
L 848.525938 289.8 
" style="fill: none; stroke: #000000; stroke-width: 0.8; stroke-linejoin: miter; stroke-linecap: square"/>
   </g>
   <g id="patch_23">
    <path d="M 481.660938 514.32 
L 848.525938 514.32 
" style="fill: none; stroke: #000000; stroke-width: 0.8; stroke-linejoin: miter; stroke-linecap: square"/>
   </g>
   <g id="patch_24">
    <path d="M 481.660938 289.8 
L 848.525938 289.8 
" style="fill: none; stroke: #000000; stroke-width: 0.8; stroke-linejoin: miter; stroke-linecap: square"/>
   </g>
   <g id="text_71">
    <!-- (d)：n=10,N=80,mp=0.1,cp=0.6 -->
    <g transform="translate(573.203438 562.8165) scale(0.12 -0.12)">
     <defs>
      <path id="MicrosoftYaHei-64" d="M 3547 0 
L 2934 0 
L 2934 575 
L 2922 575 
Q 2544 -81 1747 -81 
Q 1091 -81 703 386 
Q 316 853 316 1647 
Q 316 2503 753 3020 
Q 1191 3538 1897 3538 
Q 2603 3538 2922 2988 
L 2934 2988 
L 2934 5116 
L 3547 5116 
L 3547 0 
z
M 2938 2056 
Q 2938 2472 2664 2751 
Q 2391 3031 1991 3031 
Q 1503 3031 1222 2667 
Q 941 2303 941 1675 
Q 941 1097 1211 761 
Q 1481 425 1931 425 
Q 2375 425 2656 754 
Q 2938 1084 2938 1575 
L 2938 2056 
z
" transform="scale(0.015625)"/>
     </defs>
     <use xlink:href="#MicrosoftYaHei-28"/>
     <use xlink:href="#MicrosoftYaHei-64" transform="translate(33.398438 0)"/>
     <use xlink:href="#MicrosoftYaHei-29" transform="translate(97.363281 0)"/>
     <use xlink:href="#MicrosoftYaHei-ff1a" transform="translate(130.761719 0)"/>
     <use xlink:href="#MicrosoftYaHei-6e" transform="translate(230.761719 0)"/>
     <use xlink:href="#MicrosoftYaHei-3d" transform="translate(292.382812 0)"/>
     <use xlink:href="#MicrosoftYaHei-31" transform="translate(366.552734 0)"/>
     <use xlink:href="#MicrosoftYaHei-30" transform="translate(425.195312 0)"/>
     <use xlink:href="#MicrosoftYaHei-2c" transform="translate(483.837891 0)"/>
     <use xlink:href="#MicrosoftYaHei-4e" transform="translate(507.910156 0)"/>
     <use xlink:href="#MicrosoftYaHei-3d" transform="translate(589.208984 0)"/>
     <use xlink:href="#MicrosoftYaHei-38" transform="translate(663.378906 0)"/>
     <use xlink:href="#MicrosoftYaHei-30" transform="translate(722.021484 0)"/>
     <use xlink:href="#MicrosoftYaHei-2c" transform="translate(780.664062 0)"/>
     <use xlink:href="#MicrosoftYaHei-6d" transform="translate(804.736328 0)"/>
     <use xlink:href="#MicrosoftYaHei-70" transform="translate(898.4375 0)"/>
     <use xlink:href="#MicrosoftYaHei-3d" transform="translate(962.304688 0)"/>
     <use xlink:href="#MicrosoftYaHei-30" transform="translate(1036.474609 0)"/>
     <use xlink:href="#MicrosoftYaHei-2e" transform="translate(1095.117188 0)"/>
     <use xlink:href="#MicrosoftYaHei-31" transform="translate(1119.189453 0)"/>
     <use xlink:href="#MicrosoftYaHei-2c" transform="translate(1177.832031 0)"/>
     <use xlink:href="#MicrosoftYaHei-63" transform="translate(1201.904297 0)"/>
     <use xlink:href="#MicrosoftYaHei-70" transform="translate(1252.050781 0)"/>
     <use xlink:href="#MicrosoftYaHei-3d" transform="translate(1315.917969 0)"/>
     <use xlink:href="#MicrosoftYaHei-30" transform="translate(1390.087891 0)"/>
     <use xlink:href="#MicrosoftYaHei-2e" transform="translate(1448.730469 0)"/>
     <use xlink:href="#MicrosoftYaHei-36" transform="translate(1472.802734 0)"/>
    </g>
   </g>
   <g id="legend_4">
    <g id="patch_25">
     <path d="M 837.525938 302.8 
L 841.525938 302.8 
Q 843.525938 302.8 843.525938 300.8 
L 843.525938 296.8 
Q 843.525938 294.8 841.525938 294.8 
L 837.525938 294.8 
Q 835.525938 294.8 835.525938 296.8 
L 835.525938 300.8 
Q 835.525938 302.8 837.525938 302.8 
z
" style="fill: #ffffff; opacity: 0.8; stroke: #cccccc; stroke-linejoin: miter"/>
    </g>
   </g>
  </g>
 </g>
 <defs>
  <clipPath id="p7dbcd4fe45">
   <rect x="52.135938" y="7.2" width="366.865" height="224.52"/>
  </clipPath>
  <clipPath id="p4326cb4e4f">
   <rect x="481.660938" y="7.2" width="366.865" height="224.52"/>
  </clipPath>
  <clipPath id="pc99849746d">
   <rect x="52.135938" y="289.8" width="366.865" height="224.52"/>
  </clipPath>
  <clipPath id="p08f951d833">
   <rect x="481.660938" y="289.8" width="366.865" height="224.52"/>
  </clipPath>
 </defs>
</svg>
